<svg width="65" height="60" viewBox="0 0 65 60" fill="none" xmlns="http://www.w3.org/2000/svg">
<g clip-path="url(#clip0)">
<path d="M34.1379 41.3793H30C28.8621 41.3793 27.931 40.4482 27.931 39.3103C27.931 38.1724 28.8621 37.2413 30 37.2413H34.1379C35.2759 37.2413 36.2069 38.1724 36.2069 39.3103H38.2759C38.2759 37.0344 36.4138 35.1724 34.1379 35.1724H33.1034V33.1034H31.0345V35.1724H30C27.7241 35.1724 25.8621 37.0344 25.8621 39.3103C25.8621 41.5862 27.7241 43.4482 30 43.4482H34.1379C35.2759 43.4482 36.2069 44.3793 36.2069 45.5172C36.2069 46.6551 35.2759 47.5862 34.1379 47.5862H30C28.8621 47.5862 27.931 46.6551 27.931 45.5172H25.8621C25.8621 47.793 27.7241 49.6551 30 49.6551H31.0345V51.7241H33.1034V49.6551H34.1379C36.4138 49.6551 38.2759 47.793 38.2759 45.5172C38.2759 43.2413 36.4138 41.3793 34.1379 41.3793Z" fill="#1E1E1E"/>
<path d="M46.5517 0C40.7586 0 35.3276 2.89655 32.069 7.62931C28.8879 3.02586 23.5862 0 17.5862 0C7.88793 0 0 7.88793 0 17.5862C0 26.7802 7.09914 34.3319 16.0991 35.0948C15.0776 37.3319 14.4828 39.8017 14.4828 42.4138C14.4828 52.1121 22.3707 60 32.069 60C35.7414 60 39.2715 58.8621 42.2715 56.7155L41.069 55.0345C38.4181 56.9353 35.3147 57.931 32.069 57.931C23.5086 57.931 16.5517 50.9741 16.5517 42.4138C16.5517 33.8534 23.5086 26.8966 32.069 26.8966C40.6293 26.8966 47.5862 33.8534 47.5862 42.4138C47.5862 46.0991 46.2672 49.6681 43.8621 52.4741L45.4397 53.819C48.1552 50.6379 49.6552 46.5776 49.6552 42.4138C49.6552 39.8017 49.0733 37.3319 48.0388 35.1078C51.1681 34.8491 54.1552 33.75 56.7543 31.8879L55.5517 30.2069C53.0172 32.0172 50.0431 33.0129 46.9526 33.0905C44.0948 28.5388 39.2069 25.3836 33.569 24.9052C34.6164 22.6164 35.1724 20.1207 35.1724 17.5862C35.1724 14.7155 34.4612 12.0129 33.2457 9.62069C36.0388 4.95259 41.1078 2.06897 46.5517 2.06897C55.1121 2.06897 62.069 9.02586 62.069 17.5862C62.069 21.2716 60.75 24.8405 58.3448 27.6466L59.9224 28.9914C62.6379 25.8103 64.1379 21.75 64.1379 17.5862C64.1379 7.88793 56.25 0 46.5517 0ZM31.2802 24.8664C25.3448 25.125 20.1724 28.3448 17.1853 33.0776C8.81896 32.8707 2.06897 26.0043 2.06897 17.5862C2.06897 9.02586 9.02586 2.06897 17.5862 2.06897C26.1466 2.06897 33.1034 9.02586 33.1034 17.5862C33.1034 20.1336 32.4698 22.6293 31.2802 24.8664Z" fill="#1E1E1E"/>
<path d="M46.5517 24.8276C44.8448 24.8276 43.4483 23.4311 43.4483 21.7242V20.6897H45.5172V18.6207H43.4483V16.5517H45.5172V14.4828H43.4483V13.4483C43.4483 11.7414 44.8448 10.3448 46.5517 10.3448C48.2586 10.3448 49.6552 11.7414 49.6552 13.4483H51.7241C51.7241 10.5905 49.4095 8.27588 46.5517 8.27588C43.694 8.27588 41.3793 10.5905 41.3793 13.4483V14.4828H39.3103V16.5517H41.3793V18.6207H39.3103V20.6897H41.3793V21.7242C41.3793 24.5819 43.694 26.8966 46.5517 26.8966C49.4095 26.8966 51.7241 24.5819 51.7241 21.7242H49.6552C49.6552 23.4311 48.2586 24.8276 46.5517 24.8276Z" fill="#1E1E1E"/>
<path d="M20.2669 10.1236C20.2507 10.0991 20.2487 10.0679 20.2626 10.042C20.2765 10.0161 20.3032 10 20.3324 10H21.6464C21.6734 10 21.699 10.0144 21.7131 10.0377L22.8229 11.831L23.9323 10.0377C23.9469 10.0144 23.972 10 23.9994 10H25.2936C25.3225 10 25.349 10.0161 25.3631 10.0418C25.3772 10.0674 25.3758 10.0986 25.3593 10.1231L23.5161 12.9383C23.5013 12.9607 23.4764 12.9741 23.4504 12.9741H22.1952C22.1694 12.9741 22.1443 12.9609 22.1297 12.9388L20.2669 10.1236ZM25.9966 23.4055L25.6046 22.0668C25.5979 22.0433 25.5807 22.0245 25.5587 22.0157C25.5357 22.0063 25.5109 22.0082 25.4896 22.0202C25.1375 22.2223 24.5119 22.4628 23.529 22.4628C21.2673 22.4628 20.255 20.693 20.255 18.9391C20.255 16.8552 21.5472 15.4552 23.4702 15.4552C24.4213 15.4552 25.0459 15.6955 25.5565 15.9208C25.5776 15.9304 25.6024 15.93 25.6237 15.9192C25.645 15.9086 25.6595 15.8889 25.6653 15.8659L25.9593 14.5665C25.9667 14.5312 25.9504 14.495 25.9182 14.4784C25.4253 14.2199 24.4058 13.9183 23.1561 13.9183C20.2824 13.9183 18.351 15.9043 18.351 18.8606C18.351 21.8863 20.4799 24 23.5285 24C24.5844 24 25.4958 23.73 25.9562 23.4996C25.9906 23.4821 26.0078 23.4425 25.9966 23.4055ZM12.9838 17.0553L18.3099 10.3667C18.346 10.3216 18.352 10.2606 18.325 10.211C18.2989 10.1601 18.2461 10.1291 18.1878 10.1291H15.9461C15.8993 10.1291 15.8519 10.1517 15.8237 10.1877L11.1135 16.1906V10.277C11.1135 10.1954 11.0449 10.1291 10.9598 10.1291H9.15418C9.06908 10.1291 9 10.1954 9 10.277V23.501C9 23.5831 9.06884 23.6491 9.15418 23.6491H10.9598C11.0447 23.6491 11.1135 23.5831 11.1135 23.501V18.604L11.6019 18.5956L16.3881 23.6016C16.417 23.6316 16.4581 23.6491 16.5007 23.6491H18.6386C18.6976 23.6491 18.7531 23.6153 18.7792 23.5627C18.804 23.5104 18.7947 23.449 18.7543 23.4036L12.9838 17.0553Z" fill="#1E1E1E"/>
</g>
<defs>
<clipPath id="clip0">
<rect width="64.1379" height="60" fill="white"/>
</clipPath>
</defs>
</svg>
