<svg fill="none" xmlns="http://www.w3.org/2000/svg">
<g>
<path d="M58.847 0H4.19896C1.88399 0 0 1.88399 0 4.19896V42.0266C0 44.3415 1.88399 46.2255 4.19896 46.2255H26.7946V50.3014C26.7946 50.8801 27.2625 51.348 27.8412 51.348C28.42 51.348 28.8879 50.8801 28.8879 50.3014V46.4964H34.1458V50.3014C34.1458 50.8801 34.6137 51.348 35.1925 51.348C35.7712 51.348 36.2391 50.8801 36.2391 50.3014V46.2255H58.8347C61.1497 46.2255 63.0337 44.3415 63.0337 42.0266V4.19896C63.046 1.88399 61.162 0 58.847 0ZM60.9404 42.0266C60.9404 43.1841 59.9922 44.1322 58.8347 44.1322H4.19896C3.04148 44.1322 2.09332 43.1841 2.09332 42.0266V4.19896C2.09332 3.04148 3.04148 2.09332 4.19896 2.09332H58.8347C59.9922 2.09332 60.9404 3.04148 60.9404 4.19896V42.0266V42.0266ZM47.2353 56.2612C47.0629 56.8153 46.4718 57.1231 45.9177 56.9508C37.0888 54.2048 25.8957 54.2171 17.116 56.9508C16.5619 57.1231 15.9708 56.8153 15.7984 56.2612C15.6261 55.7071 15.9339 55.116 16.488 54.9436C25.674 52.0869 37.2981 52.0745 46.5334 54.9436C47.0998 55.1283 47.4076 55.7071 47.2353 56.2612Z" fill="#1E1E1E"/>
<path d="M31.523 9.19836C23.9132 9.19836 17.7317 15.3798 17.7317 22.9897C17.7317 30.5995 23.9132 36.781 31.523 36.781C39.1329 36.781 45.3143 30.5995 45.3143 22.9897C45.3143 15.3798 39.1329 9.19836 31.523 9.19836ZM31.523 34.6753C25.083 34.6753 19.8373 29.4297 19.8373 22.9897C19.8373 16.5496 25.083 11.304 31.523 11.304C37.9631 11.304 43.2087 16.5496 43.2087 22.9897C43.2087 29.4297 37.9631 34.6753 31.523 34.6753Z" fill="#1E1E1E"/>
<path d="M31.5231 19.308C32.1019 19.308 32.5698 19.7759 32.5698 20.3546C32.5698 20.9334 33.0377 21.4013 33.6164 21.4013C34.1952 21.4013 34.6631 20.9334 34.6631 20.3546C34.6631 18.9878 33.7888 17.818 32.5575 17.387V16.9438C32.5575 16.365 32.0896 15.8971 31.5108 15.8971C30.9321 15.8971 30.4642 16.365 30.4642 16.9438V17.387C29.2451 17.818 28.3585 18.9878 28.3585 20.3546V20.7856C28.3585 22.1771 29.2451 23.3838 30.575 23.7902L31.831 24.1842C32.2743 24.3196 32.5698 24.726 32.5698 25.1816V25.6126C32.5698 26.1913 32.1019 26.6592 31.5231 26.6592C30.9444 26.6592 30.4765 26.1913 30.4765 25.6126C30.4765 25.0338 30.0085 24.5659 29.4298 24.5659C28.8511 24.5659 28.3831 25.0338 28.3831 25.6126C28.3831 26.8316 29.0727 27.8906 30.0947 28.4078V29.0235C30.0947 29.6022 30.5627 30.0701 31.1414 30.0701C31.7201 30.0701 32.1881 29.6022 32.1881 29.0235V28.691C33.6164 28.3832 34.6877 27.1149 34.6877 25.6126V25.1816C34.6877 23.7902 33.8012 22.5834 32.4713 22.1771L31.2153 21.783C30.772 21.6476 30.4765 21.2412 30.4765 20.7856V20.3546C30.4765 19.7759 30.9444 19.308 31.5231 19.308Z" fill="#1E1E1E"/>
</g>
</svg>
