<svg width="452" height="500" viewBox="0 0 452 500" fill="none" xmlns="http://www.w3.org/2000/svg">
<g clip-path="url(#clip0)">
<path d="M374.931 273.965L364.241 387.931C354.931 390.517 288.207 387.586 288.207 387.586L278.207 274.655C278.207 274.483 369.069 273.621 374.931 273.965Z" fill="white"/>
<path d="M333.551 273.103C333.034 273.103 278.379 273.276 277.689 273.448C277.172 273.621 277 273.965 276.827 274.483C276.827 276.207 286.31 383.276 286.827 387.586C286.827 388.103 287.344 388.621 287.862 388.793C289.241 388.965 349.931 391.379 363.207 389.31C364.413 389.138 365.276 389.138 365.448 387.931C368.379 355.689 372.862 305 375.448 273.965C374.758 273.965 374.586 273.965 375.448 273.965C375.448 273.103 377 273.103 333.551 273.103ZM374.241 274.483C374.586 274.483 374.758 271.034 369.931 318.448C362.689 390.172 363.379 386.896 363.034 386.896C352 388.793 300.62 386.724 289.413 386.207C286.31 351.896 282.517 309.827 279.413 275.689C310.276 275.345 364.758 274.31 374.241 274.483Z" fill="#1E1E1E"/>
<path d="M171.827 305C193.034 306.207 212.345 310.517 232.862 315.345C251.483 319.827 270.103 325 284.586 338.103C310.965 361.896 320.103 401.896 285.276 422.586C267.689 432.931 246.31 433.448 226.655 429.827C220.103 428.62 213.896 425.862 207.517 424.138C206.138 423.793 202.345 421.551 200.793 421.896C199.069 422.414 198.724 426.379 198.724 427.931C198.207 434.31 197.345 440.517 196.483 446.896C196.31 447.931 195.448 454.138 194.241 454.138C191.31 454.138 189.931 446.896 189.241 444.827C186.655 437.069 187.862 423.965 177.517 422.758C161.31 420.689 156.138 422.758 139.931 420.862C135.62 420.345 121.483 419.31 117.862 420.345C115.448 421.034 115.103 422.931 111.138 432.414C110.793 433.103 107.172 444.655 105.103 441.551C102.517 437.414 105.965 421.724 101.827 419.138C89.0688 411.551 71.655 411.551 60.6205 398.448C35.4481 368.448 54.4136 324.482 85.9653 308.965C96.4826 303.793 108.379 302.931 119.758 302.241C136.138 301.379 171.827 305 171.827 305Z" fill="white"/>
<path d="M124.586 301.379C115.448 301.379 102.345 302.414 93.3792 305C57.5171 315.517 33.2068 362.758 56.655 396.034C67.5171 411.207 80.4482 411.552 94.9309 417.586C96.9999 418.448 98.8964 419.31 100.793 420.517C103.379 422.586 101.483 435 102.69 440.345C103.207 442.241 104.241 443.965 106.138 443.448C108.552 442.758 110.276 438.103 111.138 435.862C111.827 433.965 115.621 423.448 117.172 422.241C119.931 420.172 142.517 422.758 146.483 422.931C156.31 423.448 161.483 422.758 171.655 423.621C176.483 423.965 179.414 424.138 181.655 426.207C185.965 430.345 185.276 438.103 188.896 449.31C189.586 451.552 190.793 454.483 192.862 455.345C194.931 456.207 195.965 454.827 196.483 452.758C198.207 444.483 199.414 436.034 199.931 427.758C199.931 426.896 200.276 423.965 200.965 423.448C201.31 423.276 203.896 424.31 204.586 424.655C207.517 426.034 205.276 425 212.69 427.586C222.862 431.379 233.724 433.448 244.586 433.448C299.414 434.827 325.103 393.793 298.379 352.931C283.724 331.034 264.759 322.758 239.759 316.552C216.827 310.862 193.724 305.862 171.483 304.655C172 304.655 144.931 301.379 124.586 301.379ZM122.862 418.448C118.552 418.448 115.793 418.621 113.896 422.069C111.138 427.241 108.034 437.586 105.965 440.172C104.069 435.172 107.345 421.379 102.517 417.931C97.3447 414.483 85.4482 411.207 79.0688 408.793C74.9309 407.414 70.9654 405.345 67.3447 402.931C60.6206 397.586 55.4481 390.517 52.6895 382.414C44.0688 357.586 56.9999 329.483 78.0344 314.655C87.1723 308.276 95.4482 305.517 106.827 304.138C124.241 302.069 140.965 302.931 163.724 304.827C185.793 306.552 194.414 307.069 227.862 315C244.586 318.965 261.827 323.103 276.138 332.758C287 340.345 295.793 350.517 301.483 362.586C312.69 387.069 305.965 410.862 280.793 423.448C264.931 431.207 246.655 431.552 229.241 428.793C221.138 427.414 219.931 426.379 207.862 422.586C204.241 421.379 199.931 417.758 198.034 423.276C197.345 425.689 197.517 427.069 196.827 432.931C196.483 435.862 194.931 449.138 193.724 452.069C193.724 452.241 193.724 452.241 193.552 452.069C192 450.345 190.965 445.689 190.448 443.965C188.034 436.034 188.896 423.965 179.414 421.379C176.655 420.862 173.896 420.517 171.138 420.345C159.586 419.483 154.069 420.689 140.448 419.31C134.586 418.793 128.724 418.448 122.862 418.448Z" fill="#1E1E1E"/>
<path d="M200.276 422.414C198.897 418.966 195.965 416.207 192.345 415C191.138 414.655 189.241 416.207 188.379 416.897C185.448 418.793 182.69 421.034 180.103 423.276C187.69 426.207 187 437.586 189.241 444.828C189.931 446.897 191.31 454.138 194.241 454.138C195.621 454.138 196.31 447.759 196.483 446.897C197.517 440.517 198.379 434.31 198.724 427.931C198.724 425.862 199.241 423.966 200.276 422.414Z" fill="white"/>
<path d="M191.655 413.965C190.276 414.138 189.069 414.655 188.207 415.517C185.104 417.414 182 419.655 179.241 422.069C178.724 422.414 178.552 422.931 178.724 423.448C179.069 424.655 179.931 424.138 181.655 425.689C185.793 429.483 185.448 437.069 187.862 445.345C188.724 448.62 190.104 454.31 193.379 455.172C194.414 455.517 195.621 455 195.966 453.793C197.345 451.379 197.862 445 198.207 441.896C199.759 429.483 199.069 426.724 199.759 423.965C200.276 422.069 200.793 422.586 200.621 421.724C199.759 419.655 198.379 417.758 196.655 416.207C195.448 415.172 193.552 414.31 191.655 413.965ZM194.069 416.724C196.483 417.931 198.379 419.827 199.414 422.241C198.035 424.138 197.862 428.103 197.345 432.241C197.173 434.138 194.241 452.931 193.552 452.414C193.035 451.724 192.517 451.034 192.173 450.172C187.69 439.483 189.414 427.414 182 422.931C183.379 421.724 184.931 420.517 186.31 419.483C189.069 417.414 190.448 416.034 191.483 415.862C192.69 416.034 193.379 416.379 194.069 416.724Z" fill="#1E1E1E"/>
<path d="M118.379 420.172C113.034 419.138 107.517 418.965 102 419.482C105.621 422.758 102.345 437.413 104.931 441.551C107 444.827 110.793 433.103 110.966 432.413C114.931 422.931 115.276 420.862 118.379 420.172Z" fill="white"/>
<path d="M101.655 418.276C101.138 418.448 100.621 418.965 100.621 419.483C100.793 420.69 101.655 420 102.172 424.138C102.69 429.483 101.655 437.414 103.207 441.379C104.241 443.793 105.966 444.138 107.345 442.931C109.931 440.69 111.483 434.138 114.759 425.517C115.103 424.138 115.793 422.759 116.828 421.552C117.862 420.69 118.552 421.034 118.724 420.517C118.897 420.172 118.724 419.827 118.379 419.827C118.379 420.172 118.207 420.69 118.379 419.827C113.034 418.276 107.345 417.759 101.655 418.276ZM115.966 420.517C114.241 421.724 112.862 425.345 111.828 427.414C110.793 429.655 109.759 431.724 108.897 434.138C108.034 436.379 107.172 438.276 105.793 440.345C104.586 437.241 105.448 429.483 104.931 423.793C104.759 422.759 104.586 421.552 104.241 420.517C108.207 420.172 112.172 420.172 115.966 420.517Z" fill="#1E1E1E"/>
<path d="M83.0346 346.552C80.6208 346.552 78.3795 346.897 75.9657 347.414L75.6208 348.103L76.3105 348.448C80.7933 347.759 85.276 347.759 89.7588 348.793C103.207 351.207 108.035 352.586 121.31 359.828C132.69 366.035 139.586 370.517 170.104 396.035C196.483 418.448 189.414 414.828 191.828 415.517L192 414.655C191.655 414.138 191.31 413.621 190.966 413.276C183.379 403.966 157.345 381.035 140.104 368.276C134.586 363.966 128.724 360.345 122.517 357.241C116.483 353.793 110.104 351.035 103.379 349.31C96.8277 347.759 89.9312 346.897 83.0346 346.552Z" fill="#1E1E1E"/>
<path d="M188.896 377.586C183.896 378.276 178.896 379.483 173.896 381.207C165.103 384.655 166.138 385.345 163.207 386.896C162 387.414 162.517 386.896 162 387.931C162.862 388.448 162.689 388.448 162.862 388.276C165.276 387.758 166.138 386.724 169.931 385.345C176.138 382.931 182.689 381.379 189.413 380.345C197.862 378.793 201.655 377.069 206.31 376.896C206.827 376.896 206.655 377.069 207.345 376.379C206.655 375.689 206.827 375.689 206.31 375.689C200.965 375.172 194.758 376.552 188.896 377.586Z" fill="#1E1E1E"/>
<path d="M401.31 456.207C401.31 456.207 415.793 455.862 419.414 450C421.138 447.069 421.483 441.207 420.621 438.448C419.931 435.862 418.552 436.207 415.621 434.828C406.828 430.69 389.414 446.896 384.586 437.931C383.724 436.207 383.897 442.759 383.897 443.448C383.552 445.517 384.241 447.759 385.621 449.31C389.069 454.31 395.966 455.517 401.31 456.207Z" fill="white"/>
<path d="M406.31 433.966C402.173 435.173 397.345 437.586 393.552 438.621C386.31 440.862 386.31 437.586 385.276 436.724C384.759 436.207 383.724 436.379 383.379 436.897L383.207 437.069C382.517 438.276 382.862 441.552 382.69 443.793C382.517 445.862 383.207 447.931 384.586 449.655C388.379 454.828 395.104 455.862 401.483 456.552C406.483 456.552 413.897 455.69 418.035 452.931C419.586 451.897 420.621 450.517 421.31 448.793C422.173 446.379 422.517 443.793 422.345 441.207C422.173 436.207 420.793 435.345 418.379 434.483C415.276 433.621 413.379 431.897 406.31 433.966ZM387.173 450C385.793 448.621 385.104 446.724 384.931 444.828C384.931 444.138 385.104 444.138 385.104 443.276C385.104 442.759 385.104 441.552 385.104 440.862C391.655 446.207 405.621 434.138 413.724 435.862C414.931 436.207 416.31 436.724 417.517 437.242C417.862 437.414 418.207 437.586 418.552 437.759C419.931 438.966 419.931 445.862 418.552 448.966C416.483 453.793 406.31 455.517 401.138 455.69C396.31 454.828 390.448 453.621 387.173 450Z" fill="#1E1E1E"/>
<path d="M401.483 449.655C401.483 449.655 415.966 449.311 419.586 443.449C428.207 429.311 393.897 420.862 385.103 435.173C383.724 437.586 384.069 440.69 385.793 442.931C389.241 447.759 396.138 448.966 401.483 449.655Z" fill="white"/>
<path d="M401.655 450.173C405.793 450.173 409.931 449.655 414.069 448.448C417.862 447.242 420.621 445.345 421.828 441.724C426.138 428.793 399.414 421.207 387.518 430.862C379.414 437.414 383.38 446.035 393.207 448.793C395.966 449.483 398.724 450 401.655 450.173ZM401.138 449.138C395.793 448.104 389.069 446.724 386.311 441.897C385.621 440.69 385.276 439.31 385.449 437.931C386.138 435.69 387.518 433.966 389.414 432.586C400.104 425 425.104 431.552 418.552 442.931C416.655 446.207 410.793 447.759 407 448.448C405.104 448.793 403.207 449.138 401.138 449.138Z" fill="#1E1E1E"/>
<path d="M345.793 427.931C345.966 436.034 343.035 462.759 342.862 477.241C342.69 486.034 311.828 485 310.621 478.276C310.103 475.517 308.552 427.241 310.103 426.034C312.69 424.483 345.793 427.931 345.793 427.931Z" fill="white"/>
<path d="M345.966 427.414C338.552 426.552 322.862 424.827 314.759 424.655C309.759 424.655 309.242 425 308.897 426.724C307.517 434.138 308.897 477.069 309.586 478.965C310.793 482.758 317.69 483.965 321.655 484.483C327.345 485.172 335.621 484.827 340.793 482.241C342.862 481.379 344.242 479.483 344.414 477.241C344.759 461.207 347.345 427.758 346.655 427.758C346.311 427.586 346.138 427.414 345.966 427.414ZM345.276 428.276C345.104 437.069 341.828 462.931 341.655 477.069C341.483 483.103 319.759 483.276 313.379 479.483C312.862 479.138 312.345 478.621 312 478.103C311.655 476.724 309.931 427.069 311.138 426.896C316.138 426.034 340.448 427.931 345.276 428.276Z" fill="#1E1E1E"/>
<path d="M450.276 415.69C450.448 423.793 447.517 450.517 447.345 465C447.172 473.793 416.31 472.758 415.103 466.034C414.586 463.276 413.034 415 414.586 413.793C417 412.241 450.276 415.69 450.276 415.69Z" fill="white"/>
<path d="M450.276 415.173C442.862 414.311 427.172 412.586 419.069 412.414C414.069 412.414 413.551 412.759 413.207 414.483C411.827 421.897 413.207 464.828 413.896 466.724C415.103 470.518 422 471.724 425.965 472.242C431.655 472.931 439.931 472.586 444.931 469.828C447 468.966 448.379 467.069 448.552 464.828C448.896 448.793 451.483 415.345 450.793 415.345C450.793 415.345 450.62 415.173 450.276 415.173ZM449.758 416.207C449.586 425 446.31 450.862 446.138 465C445.965 471.035 424.241 471.207 417.862 467.414C417.345 467.069 416.827 466.552 416.483 466.035C416.138 464.655 414.414 415 415.62 414.828C420.62 413.966 444.758 415.69 449.758 416.207Z" fill="#1E1E1E"/>
<path d="M309.241 439.138C312.517 448.448 331.655 448.621 340.965 445.345C342.517 444.828 343.896 444.138 345.103 443.103C345.276 442.931 345.276 443.103 345.276 442.241C344.241 442.241 344.758 442.069 343.724 442.586C338.207 445.345 314.758 446.724 310.103 438.793L309.414 438.448L309.241 439.138Z" fill="#1E1E1E"/>
<path d="M413.896 426.207L413.551 426.897C416.827 435.862 435.793 436.724 445.62 432.931C447 432.414 448.207 431.724 449.414 430.69C449.586 430.517 449.586 430.69 449.586 429.828C448.551 429.828 449.069 429.655 448.207 430.173C442.862 432.931 420.62 434.138 415.103 427.242C414.241 426.207 414.931 426.552 413.896 426.207Z" fill="#1E1E1E"/>
<path d="M309.586 451.724C314.069 458.793 337.172 458.621 344.069 453.621C344.414 453.276 344.241 453.621 344.414 452.586C343.034 452.414 344.241 452.414 342.172 453.103C338.207 454.31 327.345 455.172 318.379 453.793C315.965 453.448 312.172 452.931 310.448 451.034L309.758 450.862L309.586 451.724Z" fill="#1E1E1E"/>
<path d="M414.069 438.793L413.897 439.483C418.379 446.552 441.655 446.379 448.552 441.207C448.897 441.034 448.724 441.207 448.897 440.345C447.517 440.172 448.724 440.172 446.655 440.862C440.621 442.758 419.069 443.276 414.759 438.793H414.069Z" fill="#1E1E1E"/>
<path d="M309.759 462.586L309.931 463.276C317.69 467.931 327 469.483 335.793 467.414C338.207 466.897 342 466.207 343.379 464.138V463.448C342.172 463.448 343.034 463.448 341.828 463.966C340.793 464.483 339.586 464.828 338.552 464.828C335.276 465.345 332.172 465.517 328.897 465.69C322.69 465.69 316.31 464.483 310.448 462.414L309.759 462.586Z" fill="#1E1E1E"/>
<path d="M414.069 450.345L414.241 451.034C422 455.69 431.31 457.241 440.103 455.172C442.517 454.655 446.31 453.965 447.69 451.897V451.207C446.483 451.207 447.345 451.207 446.138 451.724C445.103 452.241 443.897 452.586 442.862 452.586C439.586 453.103 436.483 453.276 433.207 453.448C427 453.448 420.621 452.241 414.759 450.172L414.069 450.345Z" fill="#1E1E1E"/>
<path d="M309.931 472.414C310.104 474.31 312.518 475.69 314.242 476.379C319.931 478.793 329.069 479.138 334.931 477.931C337.862 477.241 341.828 475.862 343.207 473.276L343.035 472.586L342.345 472.759C339.759 476.034 329.069 476.034 324.759 475.862C322 475.69 312.173 474.827 310.966 472.414C310.793 472.241 310.966 472.414 310.276 471.896L309.931 472.414Z" fill="#1E1E1E"/>
<path d="M415.104 463.793C415.276 465.69 417.69 467.069 419.414 467.759C425.104 470.172 434.242 470.517 440.104 469.31C443.035 468.621 447 467.241 448.38 464.655L448.207 463.966L447.518 464.138C444.931 467.414 434.242 467.414 429.931 467.241C427.173 467.069 417.345 466.207 416.138 463.793C415.966 463.621 416.138 463.793 415.449 463.276L415.104 463.793Z" fill="#1E1E1E"/>
<path d="M327 438.276C327 438.276 341.483 437.931 345.103 432.069C353.724 417.931 319.414 409.483 310.621 423.793C309.241 426.207 309.586 429.31 311.31 431.552C314.759 436.552 321.483 437.586 327 438.276Z" fill="white"/>
<path d="M327 438.966C331.138 438.966 335.276 438.448 339.414 437.241C343.207 436.035 345.965 434.138 347.172 430.517C351.482 417.586 324.758 410 312.862 419.655C304.758 426.207 308.724 434.828 318.551 437.586C321.31 438.104 324.069 438.621 327 438.966ZM326.482 437.759C321.138 436.724 314.414 435.345 311.655 430.517C310.965 429.31 310.62 427.931 310.793 426.552C311.482 424.31 312.862 422.586 314.758 421.207C325.448 413.621 350.448 420.172 343.896 431.552C342 434.828 336.138 436.379 332.345 437.069C330.448 437.414 328.551 437.759 326.482 437.759Z" fill="#1E1E1E"/>
<path d="M431.31 426.207C431.31 426.207 445.793 425.862 449.414 420C458.034 405.862 423.724 397.414 414.931 411.724C413.552 414.138 413.896 417.241 415.621 419.483C419.069 424.31 425.965 425.345 431.31 426.207Z" fill="white"/>
<path d="M431.31 426.724C435.448 426.724 439.586 426.207 443.724 425C447.517 423.793 450.276 421.896 451.482 418.276C455.793 405.345 429.069 397.759 417.172 407.414C409.069 413.965 413.034 422.586 422.862 425.345C425.62 425.862 428.551 426.379 431.31 426.724ZM430.965 425.517C425.62 424.483 418.896 423.103 416.138 418.276C415.448 417.069 415.103 415.69 415.276 414.31C415.965 412.069 417.345 410.345 419.241 408.965C429.931 401.379 454.931 407.931 448.379 419.31C446.482 422.586 440.62 424.138 436.827 424.827C434.931 425.345 432.862 425.517 430.965 425.517Z" fill="#1E1E1E"/>
<path d="M294.759 223.621C303.897 231.552 343.38 230.69 350.621 230.172C409.242 225.345 410.448 160.69 413.035 115.69C416.138 64.4828 410.104 8.62075 349.242 1.89661C340.448 0.689716 321.483 1.7242 312.69 3.27592C283.035 7.9311 275.448 29.4828 272.69 35.1725C257.69 65.5173 257.69 96.5518 260.448 129.828C263.38 167.586 265.276 198.104 294.759 223.621Z" fill="white"/>
<path d="M353.897 230.517C400.276 224.828 409.931 181.724 413.207 135.517C416.138 94.8276 419.931 42.069 387.862 15.3449C375.793 5.3449 359.414 0.344903 343.897 7.5791e-05C334.931 -0.172338 325.966 0.344903 317 1.20697C297.172 3.44835 282.517 11.7242 273.379 30.1725C262.69 51.8966 256.655 71.3794 257.69 107.586C258.035 120.862 260.104 143.793 261.31 154.483C264.069 177.586 269.069 196.897 284.414 214.483C287.345 217.931 290.621 221.035 294.069 223.966C303.552 231.724 342.517 231.897 353.897 230.517ZM340.448 2.58628C344.931 2.58628 349.241 2.7587 353.552 3.62077C406.31 12.069 414.931 60.1725 412 113.621C411.31 127.931 410.448 142.586 408.897 155.69C403.552 198.276 388.724 227.931 345.621 229.483C334.931 229.828 303.379 230 295.276 223.104C278.897 208.793 270.448 192.586 266.138 171.035C262.69 153.793 260.621 120 260.276 106.035C259.586 72.2414 265.621 51.5518 276.483 30.3449C282.172 18.6208 292.862 9.82766 305.448 6.20697C315.103 3.27594 331.483 2.58628 340.448 2.58628Z" fill="#1E1E1E"/>
<path d="M333.034 274.827C332.172 247.931 331.828 254.655 332.172 107.414L333.034 274.827Z" fill="white"/>
<path d="M330.276 116.207C328.552 152.931 328.552 174.31 328.896 215.517C328.724 232.931 329.414 250.345 331.138 267.586C331.827 276.034 331.483 274.483 332.172 275.862L333.034 276.207L333.896 275.862L334.241 274.828C334.241 252.586 336.138 201.207 335.103 151.379C334.758 136.724 333.379 107.759 333.379 107.241L333.034 106.207L332.172 105.862C330.448 106.724 330.793 105.862 330.276 116.207Z" fill="#1E1E1E"/>
<path d="M332.173 181.207C336.311 173.448 360.621 138.448 369.069 127.414L332.173 181.207Z" fill="white"/>
<path d="M368.034 126.724C362 132.759 356.655 139.31 351.655 146.207C344.241 156.724 335.965 168.621 331.138 180.517C330.965 180.862 331.138 180.517 330.965 181.724L331.482 182.414H332.517C333.724 181.552 333.034 182.242 334.758 180C337.345 176.552 339.758 173.966 344.414 167.931C365.965 138.104 367.172 133.104 370.103 128.276L370.276 127.242L369.758 126.379L368.896 126.207L368.034 126.724Z" fill="#1E1E1E"/>
<path d="M75.793 290.345C75.2757 290.862 74.5861 291.207 74.0688 291.724C73.0343 292.586 70.6205 293.621 70.4481 295.345C70.4481 295.69 71.4826 296.724 71.655 296.896C72.8619 298.276 73.8964 299.827 74.9309 301.379C76.4826 303.448 78.0343 305.517 79.5861 307.414C80.1033 308.103 81.1378 309.483 81.9998 309.655C82.5171 309.655 84.0688 307.931 84.2412 307.759C85.4481 306.724 86.655 305.862 87.8619 304.827C83.8964 299.655 84.9309 301.207 75.793 290.345Z" fill="white"/>
<path d="M75.2757 290.172C70.9653 293.276 72.8619 291.724 71.3102 292.758C70.2757 293.276 69.5861 294.31 69.4136 295.517C69.5861 296.207 69.9309 296.724 70.2757 297.069C71.8274 298.965 73.2067 301.034 74.586 303.103C75.4481 304.31 78.8964 308.793 79.0688 308.965C79.586 309.655 80.1033 310.172 80.6205 310.517C82.1722 311.552 83.0343 310.862 84.4136 309.655C85.9653 308.103 85.4481 308.793 88.7239 305.862C89.2412 305.517 89.2412 304.827 89.0688 304.31C86.4826 301.034 83.7239 297.931 80.7929 295C75.7929 289.655 75.9653 289.655 75.4481 290L75.2757 290.172ZM86.1377 304.655C84.9308 305.517 83.7239 306.552 82.6895 307.586C82.5171 307.758 82.3446 307.931 81.9998 308.276C81.3101 307.758 75.9653 300.689 75.7929 300.517C71.8274 295 72.5171 296.552 71.3102 295.345C71.655 294.827 71.9998 294.31 72.5171 293.965C73.5515 293.103 74.7584 292.241 75.6205 291.207C82.8619 301.034 80.7929 297.586 86.1377 304.655ZM71.3102 295.689C71.3102 295.517 71.3102 295.517 71.3102 295.689V295.689Z" fill="#1E1E1E"/>
<path d="M85.6207 314.655C82.862 307.931 78.2069 302.241 73.3793 296.724C72.5172 295.862 70.2758 291.896 68.8965 291.896C65.9655 291.724 59.0689 298.276 57.1724 300.345C55.9655 301.724 54.7586 303.103 53.2069 304.138C52.1724 304.655 48.5517 303.793 47.3448 303.448C42.1724 301.896 37.6896 301.379 37.1724 306.724C37 308.621 39.2414 310.689 45.9655 311.207C46.4827 311.207 45.9655 312.414 45.7931 312.758C44.4138 316.207 42.5172 319.31 40.9655 322.586C38.5517 327.758 36.4827 332.931 34.069 338.103C33.0345 340.345 30.4482 345.862 32.1724 348.276C34.2414 351.034 38.5517 347.069 39.7586 345.517C44.5862 339.31 48.2069 331.724 52 324.827C52.1724 324.655 51.4827 325.69 51.1379 326.379C50.4482 327.414 49.931 328.621 49.4138 329.827C48.0345 332.586 43.2069 338.103 45.4482 341.379C48.7241 346.207 54.4138 338.793 55.9655 336.207C56.4827 335 57.1724 333.965 58.0345 332.931L57.6896 333.793C57.1724 334.827 56.6551 335.862 56.3103 337.069C55.9655 338.793 57.1724 340.689 58.8965 341.034C60.4483 341.724 61.8276 340.345 62.6896 339.138C64.931 336.207 66.6552 332.758 68.0345 329.31C68.3793 328.276 68.3793 326.379 69.2414 325.689C73.0345 322.586 85.6207 314.655 85.6207 314.655Z" fill="white"/>
<path d="M37 303.276C36.3104 304.31 35.9655 305.517 35.9655 306.897C35.9655 310.69 40.9655 311.897 44.5862 312.414C43.3793 315.69 41.3104 318.966 39.5862 322.414C37.6897 326.552 35.9656 330.517 34.069 334.828C32.5173 338.276 30.2759 342.414 30.1035 346.034C30.1035 350.345 33.5518 352.586 38.2069 348.966C40.6207 346.897 42.5173 344.483 44.069 341.724C45.7931 345.172 50.1035 346.034 55.2759 339.31C56.1379 341.034 57.6897 342.069 59.4138 342.241C61.3104 342.069 63.0345 340.862 63.8966 339.138C65.9655 336.207 67.5173 332.931 68.7242 329.483C68.8966 328.621 69.069 327.069 69.4138 326.552C69.5862 326.379 71.8276 324.828 72.1724 324.655C85.6207 315.345 86.3104 315.862 85.9655 315C82.3448 305.862 75.7931 299.483 72.5173 294.828C71.4828 293.276 70.1035 291.379 68.3793 291.552C65.9655 291.724 62.8621 294.31 60.9655 295.862C58.7242 297.586 56.6552 299.483 54.7587 301.724C54.2414 302.241 52.8621 303.621 52.1725 303.793C48.7242 303.448 40.4483 298.276 37 303.276ZM50.4483 340.517C49.2414 341.379 47.8621 342.069 46.8276 340.862C46.4828 340.517 46.138 340 46.138 339.483C46.138 338.621 46.1379 337.931 46.6552 337.069C48.7242 333.448 52.5173 326.379 52.8621 325.862C53.2069 325.517 53.3793 325 53.3793 324.483C53.2069 324.31 53.5517 323.966 52.6897 323.448C52.1724 323.103 51.6552 323.276 51.138 323.448C50.7931 323.793 50.9655 323.621 50.1035 325.172C49.4138 326.379 50.6207 324.31 47.6897 329.483C46.3104 332.241 46.4828 331.379 45.2759 333.621C44.2414 335.862 43.0345 337.931 41.6552 339.828C40.6207 341.552 39.4138 343.276 38.0345 344.828C37.1724 345.862 35.9655 346.724 34.7586 347.414C34.4138 347.586 33.8966 347.586 33.5518 347.586C33.0345 347.414 32.8621 346.724 32.6897 346.207C32.8621 343.793 33.3793 341.552 34.5862 339.31C37.8621 332.069 39.2414 328.448 41.6552 323.276C42.8621 320.69 46.8276 313.448 47.1724 311.552C47.3448 311.034 47.1725 310.69 47 310.172C46.3104 309.31 45.9655 309.655 43.0345 309.138C41.6552 308.966 40.2759 308.448 39.2414 307.759C38.0345 307.069 38.2069 306.379 38.3793 305.862C39.2414 300.862 45.4483 303.966 49.9311 304.828C54.9311 305.69 54.5862 303.793 59.9311 298.621C61.6552 296.897 65.7931 293.276 68.2069 292.586C68.3793 292.586 68.7242 292.414 68.8966 292.586C69.9311 292.931 71.8276 295.69 72.5173 296.724C73.8966 298.621 81.3104 305.69 85.1035 314.31C83.8966 315 69.4138 323.793 68.5518 324.828C67.5173 325.862 67.6897 327.586 67.3448 328.621C66.1379 331.897 64.2414 335.172 62.1724 337.931C61.4828 338.793 60.4483 339.828 59.4138 339.483C58.3793 339.138 57.3448 338.103 57.5173 337.069C57.6897 336.034 58.7242 334.483 59.4138 332.759C59.5862 332.069 59.2414 331.552 58.7242 331.379C58.2069 331.207 57.8621 331.379 57.5173 331.724C55.7931 333.276 54.4138 337.586 50.4483 340.517Z" fill="#1E1E1E"/>
<path d="M331.827 194.655C325.276 186.552 303.552 158.621 297.517 148.965L331.827 194.655Z" fill="white"/>
<path d="M296.828 147.931L296.31 148.793C296.31 149.655 296.483 150.517 297 151.207C299.414 156.379 302.172 161.207 305.448 165.862C310.448 173.103 315.966 180 321.655 186.552C323.379 188.276 325.793 190.862 326.483 191.379C331.655 196.379 330.448 195.345 331.655 195.862L332.517 195.69L333.034 194.828C332.862 193.621 332.862 193.966 332.517 193.276C328.034 185.172 322.862 177.414 317 170.172C305.448 154.828 306.828 157.586 299.241 148.966C298.207 147.759 298.724 148.276 297.517 147.414L296.828 147.931Z" fill="#1E1E1E"/>
<path d="M152 103.103C150.621 103.276 149.414 104.31 148.035 104.483C143.379 105.517 138.897 105.69 134.414 103.621C133.035 102.759 131.828 101.552 130.966 100.345C125.104 93.7931 124.931 83.7931 131.655 78.1034C141.31 69.8275 152.173 78.1034 152.173 78.1034C157.69 74.9999 161.828 71.8965 167 71.0344C172.517 69.8275 178.379 69.6551 183.897 70.3448C188.379 71.2068 192.517 73.1034 196.138 75.862C202.862 81.5517 205.621 92.931 205.966 101.379C206.31 106.207 205.104 110.862 202.862 115.172C202.517 115.862 201.31 118.793 201.483 118.276C202.173 114.31 192.173 111.207 189.586 117.586C189.586 117.759 186.31 99.8275 186.31 99.8275C184.069 102.069 172.345 111.552 152 103.103Z" fill="#1E1E1E"/>
<path d="M162.517 70.8621C159.759 72.069 157 73.4483 154.414 75.1725C151.655 76.7242 152 76.5518 151.828 76.5518C134.414 65.3449 118.207 84.3104 128.724 99.138C129.586 100.172 130.448 101.379 131.483 102.241C132.172 103.104 133.034 103.621 133.897 104.138C137.517 105.862 141.655 106.379 145.448 105.517C147 105.345 148.379 105 149.759 104.31C152.172 103.276 151.655 103.448 152.862 103.966C166.655 109.483 178.207 107.414 185.448 101.724C187.517 113.621 188.207 117.586 188.552 118.104C188.724 118.448 189.241 118.621 189.586 118.621C190.793 118.448 190.448 117.759 191.31 116.552C192 115.69 193.035 115.172 194.241 115C196.31 114.655 198.379 115.345 199.759 116.724C200.103 117.069 200.103 117.414 200.103 117.759C199.931 118.448 200.448 119.138 201.138 119.31C201.828 119.483 202.517 119.138 202.69 118.448C203.034 117.759 203.552 116.379 203.897 115.517C204.931 113.621 205.793 111.552 206.31 109.31C208.035 102.759 207 94.4828 204.931 87.9311C201.655 77.5863 195.966 71.3794 185.103 68.9656C177.69 67.9311 169.931 68.4483 162.517 70.8621ZM185.966 98.9656C185.448 99.138 177.862 107.759 162.345 105.517C158.724 104.828 155.276 103.966 151.828 102.586C150.966 102.759 150.103 103.104 149.241 103.448C146.483 104.31 143.552 104.655 140.793 104.483C138.897 104.31 137 103.793 135.276 102.931C133.897 102.069 132.69 101.035 131.655 99.6552C120.103 86.5518 134.241 68.4483 150.103 78.1035C151.483 78.9656 151.655 79.3104 152.517 79.138C153.379 78.7932 159.241 75.1725 160.621 74.4828C164.069 72.7587 166.31 72.069 172.517 71.3794C176.655 70.8621 180.793 71.0345 184.931 71.8966C188.724 72.7587 192.345 74.4828 195.448 77.069C203.207 83.9656 206.31 100.172 203.897 109.138C203.379 111.207 202.517 113.104 201.655 114.828C198.552 111.897 193.724 111.724 190.276 114.483C189.586 111.035 187.345 99.6552 187.172 99.3104C187 98.9656 186.483 98.7932 185.966 98.9656Z" fill="#1E1E1E"/>
<path d="M189.931 117.069C189.759 117.241 189.759 117.414 189.759 117.586C189.759 117.759 186.483 99.8276 186.483 99.8276C184.241 102.069 172.517 111.552 152.173 103.103C150.793 103.276 149.586 104.31 148.207 104.483C143.207 105.517 143.724 104.828 143.552 105.517C143.207 108.966 143.379 112.586 143.724 116.035C143.724 116.035 137.173 115.69 136.31 120C135.621 123.793 136.828 127.759 139.586 130.345C140.448 131.207 141.655 131.207 142.517 131.724C142.517 132.414 142.517 133.103 142.517 133.793C142.69 140.172 146.31 151.724 151.31 156.379C154.069 158.966 158.552 160 162.173 160.517C173.207 162.414 185.104 159.31 190.276 148.448C191.828 144.655 192.69 140.517 192.862 136.379C192.862 134.31 193.207 132.069 193.724 130C194.069 129.31 196.828 129.483 197.69 129.31C207.862 125.862 201.828 109.828 194.414 113.621C192.517 114.483 190.966 115.69 189.931 117.069C189.931 117.241 189.931 117.069 189.931 117.069Z" fill="white"/>
<path d="M186.138 99.138C185.621 99.3104 185.793 99.3104 184.759 100.172C178.379 105.345 168.379 107.586 156.138 103.621C152 102.241 152.345 101.897 151.483 102.069C149.069 102.586 149.759 103.276 144.759 103.966C142.862 104.138 142.862 103.966 142.345 104.483C141.138 105.862 141.655 113.276 141.828 115C139.586 115 137.345 116.034 135.621 117.586C133.379 120.517 134.069 128.103 138.207 131.552C138.896 132.069 139.759 132.414 140.621 132.759C140.621 132.931 140.621 133.621 140.621 133.793C140.448 139.138 144.069 151.724 149.759 157.414C157.345 164.655 184.931 166.897 191.655 147.414C192.862 143.276 193.552 139.138 193.724 134.828C193.724 133.448 193.896 132.241 194.241 131.035C195.793 130.517 197.172 131.379 199.931 129.483C207 124.483 202.517 112.069 195.793 112.931C195.103 113.103 194.414 113.276 193.896 113.621C192.172 114.138 190.793 115.172 189.759 116.552C186.655 99.1379 187.172 100 186.483 99.4828C186.483 99.138 186.31 98.9655 186.138 99.138ZM189.241 117.931C189.414 118.103 189.759 118.103 190.103 117.931C190.103 117.759 190.276 117.759 190.276 117.586C191.31 116.207 192.69 115.172 194.414 114.655C194.931 114.483 194.931 114.31 195.793 114.138C201.483 112.759 205.448 123.793 199.241 127.931C197.172 129.138 196.828 128.793 194.759 128.966C193.207 129.138 193.034 129.655 192.69 130.69C191.828 133.448 192.172 139.655 190.276 145.862C188.034 152.759 182.172 157.931 174.931 159.31C165.793 161.379 155.621 158.621 152.345 155.862C148.379 152.241 145.965 145.517 144.759 140.345C142.517 131.724 145.448 131.552 142 130.345C141.138 130.172 140.448 129.828 139.931 129.138C137.172 126.207 136.828 120.69 138.207 119.138C139.241 118.276 140.448 117.759 141.828 117.586C143.724 117.414 143.896 117.759 144.586 117.069C145.103 116.552 144.931 116.207 144.931 115.517C144.586 112.586 144.414 109.483 144.586 106.379C147.172 106.207 149.586 105.517 152 104.31C152.172 104.31 152 104.31 152.69 104.483C166.827 110 178.552 107.414 185.965 101.379C188.552 115.345 189.069 117.586 189.241 117.931Z" fill="#1E1E1E"/>
<path d="M143.379 105.345C139.931 105.517 135.448 104.828 133.207 102.759C132.517 108.104 133.379 113.621 135.448 118.448C135.62 118.966 135.793 119.655 136.138 120.173V120C137 115.69 143.551 116.035 143.551 116.035C143.207 113.966 142.689 107.414 143.379 105.345Z" fill="#1E1E1E"/>
<path d="M133.034 101.552C132 101.724 132 102.414 131.827 103.621C131.31 108.966 132.172 114.31 134.241 119.138C134.931 120.69 134.758 120.862 135.276 121.207C135.793 121.552 136.483 121.552 137 121.207C137.69 120.517 137.345 120.172 137.862 119.31C139.241 117.241 143.552 117.241 143.896 117.241C144.414 117.069 144.758 116.552 144.758 116.035C144.586 114.483 144.241 112.931 144.069 110.517C143.724 108.793 143.724 106.897 144.069 105.172C144.069 105 143.724 104.828 143.552 104.828C140.621 104.828 137.517 104.138 134.931 102.586C133.896 101.897 133.896 101.552 133.034 101.552ZM142.69 105.862C142.172 108.793 142.172 111.897 142.345 115C141.31 115 140.276 115.172 139.241 115.517C138.207 115.862 137.172 116.379 136.483 117.069C134.931 113.103 134.241 108.793 134.241 104.655C136.827 105.862 139.758 106.207 142.69 105.862Z" fill="#1E1E1E"/>
<path d="M194.242 130C194.069 130 193.897 130.172 193.724 130.345C193.207 132.414 192.862 134.483 192.862 136.724C192.69 140.862 191.655 144.828 190.276 148.793C185.104 159.655 173.207 162.759 162.173 160.862C158.552 160.345 154.069 159.31 151.311 156.724C145.966 151.552 142.173 138.793 142.518 133.621C141.311 133.793 139.931 133.966 138.724 134.31C76.8279 145 46.6555 200.517 59.5865 270.172C62.5175 286.379 70.2761 300 80.2762 306.379C95.621 316.379 111.138 319.828 128.724 321.207C162.862 323.793 200.104 327.241 234.069 320.172C242.69 318.448 251.828 316.379 259.759 312.586C263.552 310.862 290.966 287.931 295.449 273.276C309.759 226.034 286.311 177.931 247.862 147.586C233.035 135.862 213.897 131.034 194.242 130Z" fill="#1E1E1E"/>
<path d="M192.862 131.034C192.517 132.759 192.345 134.31 192.345 136.034C192.173 137.241 191.828 141.034 191.138 143.621C187.862 158.276 173.552 162.931 158.552 159.31C156.138 158.793 153.724 157.759 151.828 156.207C147.173 152.069 144.069 142.586 143.379 136.897C142.862 133.276 143.379 133.793 143.035 133.103C142.862 132.759 142.517 132.586 142 132.586C135.104 133.621 128.207 135.172 121.483 137.414C72.5174 153.793 51.3105 200.345 55.6208 252.586C56.8277 268.448 59.5864 283.965 68.5519 296.724C73.0346 303.103 78.5519 308.448 92.6898 314.483C100.448 317.759 108.724 320 117.173 321.207C127.345 322.759 157.517 324.655 167.862 325.172C182.173 325.862 196.483 325.862 210.793 324.655C224.931 323.448 245.276 320 257.862 314.655C260.793 313.276 262 312.586 266.483 308.965C276.31 300.862 292.69 285.345 296.31 273.103C305.448 241.897 298.724 210 280.448 182.069C268.897 164.655 252.345 148.965 240.793 142.069C229.586 135.69 217.345 131.897 204.586 130.517C202 130.172 194.414 129.483 193.724 129.655C193.207 129.828 193.207 130.172 192.862 131.034ZM194.586 130.517C210.621 131.552 226.655 135 240.448 143.276C248.897 148.448 258.897 157.759 265.621 165.345C289.242 191.724 303.207 226.207 296.828 261.552C296.138 265.69 295.104 269.828 293.724 273.965C293.379 275 292.862 275.862 292.517 276.724C285.448 290.172 263.897 308.793 259.242 311.207C254.242 313.448 248.897 315.345 243.379 316.552C217.517 322.931 194.414 323.621 167.173 322.414C152.517 321.724 127.69 319.655 123.379 319.31C108.207 317.586 95.276 314.138 82.345 306.207C76.1381 302.414 70.7932 297.069 66.1381 287.069C62.8622 280 60.7932 272.414 59.7588 264.655C53.8967 225.862 60.4484 185.172 89.5864 158.448C104.759 144.655 121.828 137.931 141.483 134.655C142 141.034 144.069 147.241 147.173 152.759C150.276 157.931 153.207 159.828 159.586 161.207C170.448 163.448 181.655 161.724 188.379 153.276C190.966 149.828 192.69 145.69 193.035 141.379C194.069 134.31 193.552 133.276 194.242 131.034C194.242 130.517 194.069 130.517 194.586 130.517Z" fill="#1E1E1E"/>
<path d="M129.414 136.207C73.7243 150.517 47.1726 203.965 59.4139 270.172C62.345 286.379 70.1036 300 80.1036 306.379C95.4484 316.379 110.966 319.827 128.552 321.207C135.793 321.724 143.035 322.414 150.448 322.931C152.173 310.862 153.035 298.793 153.207 286.552C153.035 252.931 149.242 219.655 146.483 186.379C146.138 182.759 145.793 179.138 145.448 175.517C144.414 174.138 143.379 172.931 142.517 171.896C133.724 162.586 130.793 148.793 129.414 136.207Z" fill="white"/>
<path d="M129.241 135.69C74.4136 149.483 50.2757 199.138 56.1377 256.207C57.8619 273.793 61.8274 292.241 75.2757 304.31C80.2757 308.793 89.0688 313.276 95.4481 315.69C112 322.069 127 322.586 144.931 323.793C151.138 324.31 150.621 324.31 151.31 323.966C152 323.448 151.827 323.448 152.345 319.655C154.414 301.379 155.965 287.241 153.034 245.69C151.827 229.655 150.276 215 148.724 198.793C146.31 173.103 146.655 175.517 145.965 174.655C144.931 173.276 144.241 172.586 143.552 171.724C142.517 170.69 141.483 169.483 140.621 168.276C131.483 155.862 130.621 137.069 130.276 136.207C129.758 135.69 129.414 135.517 129.241 135.69ZM134.241 160.345C137.689 168.448 140.793 171.207 143.896 175C144.758 176.034 144.586 175.69 144.586 176.207C144.414 176.207 149.241 227.069 150.965 255.172C152.689 287.241 151.827 298.448 149.931 315.862C149.241 322.069 149.414 321.379 149.241 321.379C149.414 321.207 122.517 320.345 107 316.552C96.655 313.966 82.6895 308.276 75.2757 300.517C66.655 291.724 62.5171 279.483 60.4481 267.241C50.2757 207.241 71.8274 152.414 129.241 136.897C129.586 144.828 131.31 152.759 134.241 160.345Z" fill="#1E1E1E"/>
<path d="M207.69 131.379C207.862 135.862 207.862 140.345 207.517 144.828C207 155.862 202.345 169.31 194.414 178.104C194.414 178.621 194.414 179.31 194.242 179.828C192.862 212.069 191.655 245 193.724 277.241C194.586 289.655 194.759 311.207 200.966 323.966C217.517 323.276 234.069 320.69 249.931 316.035C254.069 314.31 258.379 312.414 262.517 310.345C270.793 304.138 291.31 285.69 295.104 273.104C309.414 225.862 285.966 177.759 247.517 147.414C236.31 138.621 222.345 133.621 207.69 131.379Z" fill="white"/>
<path d="M207.517 130.862C207.172 130.862 207 131.207 207 131.379C207.689 131.379 207.862 131.379 207 131.379C207.344 137.759 207 144.31 206.138 150.69C204.586 160.345 200.448 169.483 194.241 176.897C193.207 177.931 193.551 177.069 193.207 182.931C190.448 242.586 191.31 258.276 193.207 289.655C193.551 298.276 194.758 306.724 196.482 315.172C197.345 318.621 198.379 321.724 199.931 325C200.62 325.69 201.138 325.517 202.172 325.517C214.586 325 227 323.276 239.241 320.517C246.31 319.31 253.207 316.897 259.758 313.448C263.896 311.552 263.379 311.724 264.931 310.517C274.758 302.759 292 286.552 296.138 274.655C297.862 268.965 299.241 263.276 299.931 257.414C304.586 220.517 288.379 185.69 262.345 159.483C245.965 143.103 234.413 137.241 219.586 133.448C215.62 132.241 211.655 131.379 207.517 130.862ZM208.207 132.069C231.138 136.034 242.689 143.621 255.793 155.517C288.207 185.69 306.655 228.966 294.241 271.724C293.207 275.345 291.482 278.793 289.241 281.897C282.862 290.862 272.172 301.379 263.724 307.931C262 309.31 262.689 309.138 256.31 312.069C252.345 314.138 248.207 315.69 243.724 316.552C230.103 320 215.965 322.069 202 322.586C198.896 315.862 197.517 306.897 196.655 299.483C195.793 292.069 194.241 265.69 193.896 246.724C193.724 228.276 194.069 211.724 194.586 193.448C195.103 176.897 195.103 178.448 195.276 178.103C200.276 172.241 203.896 165.345 205.793 157.931C207.344 152.414 208.034 147.759 208.207 136.897C208.379 131.724 208.034 132.069 208.207 132.069Z" fill="#1E1E1E"/>
<path d="M212 336.552C262 322.241 255.621 325.69 269.242 320.345C270.276 320 272.517 319.655 273.207 318.793C273.897 317.586 273.035 316.207 272.862 315C272.517 313.276 272.69 310.69 272 308.965C271.483 307.931 268.552 309.138 267.862 309.31C263.552 310.172 259.242 310.862 254.931 311.897C237.862 316.207 220.276 318.276 203.379 322.759C203.035 322.931 203.379 323.965 203.552 324.138C204.242 325.69 204.931 327.069 205.793 328.448C206.828 330.517 207.69 332.759 208.897 334.655C209.069 335 209.586 336.379 210.104 336.552C210.448 337.241 211.311 336.724 212 336.552Z" fill="white"/>
<path d="M270.793 307.069C269.586 307.242 268.207 307.414 267 307.931C248.379 311.379 256.655 310.517 235.966 314.483C231.483 315.345 210.276 319.31 202.862 321.897C200.621 322.931 203.724 327.069 204.759 328.966C205.621 330.69 206.483 332.414 207.517 334.31C208.035 335.345 208.035 335.173 208.035 335.345C208.724 336.552 208.897 337.586 210.276 337.586C210.966 337.586 209.586 337.759 227.517 333.276C261.655 324.655 258.552 325.69 263.724 323.966C267.345 322.759 269.759 321.724 270.276 321.552C270.793 321.379 271.483 321.207 272.345 321.035C276.828 319.483 274.586 315.862 274.414 314.31C273.724 311.207 274.414 307.069 270.793 307.069ZM271.311 315C271.655 316.035 271.828 316.897 272 317.931C270.966 318.448 269.931 318.793 268.897 318.966C254.069 324.828 261.311 320.69 212 336.035C211.483 336.207 210.793 336.379 210.276 336.379C209.931 336.035 209.759 335.345 209.242 334.31C208.035 331.897 207.345 329.828 206.138 327.586C205.448 326.379 204.759 325.173 204.414 323.966C213.207 321.897 224.759 320 234.414 318.276C251.138 315.173 253.552 314.138 259.069 312.931C261.138 312.586 268.724 311.035 268.724 311.035C269.586 310.862 270.276 310.517 271.138 310.345C271.138 311.379 270.966 313.448 271.311 315ZM204.069 323.276C204.069 323.104 204.069 323.104 204.069 323.276V323.276Z" fill="#1E1E1E"/>
<path d="M214.069 344.31C213.897 340.345 211.483 335.517 209.931 331.896C208.379 328.103 206.655 324.483 204.931 320.689C204.414 319.655 203.552 316.896 202.517 316.034C200.793 314.827 196.138 316.896 194.414 317.758C177.517 325.689 163.724 333.276 147.862 342.414C169.069 348.965 191.31 348.448 214.069 344.31Z" fill="white"/>
<path d="M196.483 315.69C192 317.414 170.448 328.276 158.724 334.828C146.138 341.897 147 341.379 146.655 341.897C146.483 342.414 146.655 343.104 147.173 343.448C150.276 344.483 153.552 345.345 156.828 346.035C172.69 349.31 188.035 348.966 203.897 346.552C204.414 346.379 213.897 345 214.242 344.655C214.414 344.483 214.414 344.483 214.414 344.31C214.414 342.931 214.069 341.379 213.724 340C212.345 335.173 206.138 321.035 205.621 319.828C204.242 315.345 203.552 313.104 196.483 315.69ZM202 316.897C202.862 318.104 203.552 319.31 203.897 320.69C205.966 325.69 212.69 338.448 213.379 343.793C207.173 344.655 203.035 345.345 195.276 345.862C180.448 347.069 165.621 345.69 151.311 341.897C160.793 336.552 168.035 332.414 176.828 327.931C187.69 322.586 199.759 315.862 202 316.897Z" fill="#1E1E1E"/>
<path d="M300.448 494.483C300.448 494.483 314.931 494.138 318.552 488.276C320.276 485.345 320.621 479.483 319.759 476.724C319.069 474.138 317.69 474.483 314.759 473.103C305.966 468.965 288.552 485.172 283.724 476.207C282.862 474.483 283.034 481.034 283.034 481.724C282.69 483.793 283.379 486.034 284.759 487.586C288.034 492.586 294.931 493.621 300.448 494.483Z" fill="white"/>
<path d="M305.276 472.241C301.138 473.448 296.31 475.862 292.517 476.897C285.276 479.138 285.276 475.862 284.241 475C283.724 474.483 282.689 474.655 282.345 475.172L282.172 475.345C281.482 476.552 281.827 479.828 281.655 482.069C281.482 484.138 282.172 486.207 283.551 487.931C287.345 493.103 294.069 494.138 300.448 494.828C305.448 494.828 312.862 493.966 317 491.207C318.551 490.172 319.586 488.793 320.276 487.069C321.138 484.655 321.482 482.069 321.31 479.483C321.138 474.483 319.758 473.621 317.345 472.759C314.414 471.724 312.517 470 305.276 472.241ZM286.31 488.103C284.931 486.724 284.241 484.828 284.069 482.931C284.069 482.241 284.241 482.241 284.241 481.379C284.241 480.862 284.241 479.655 284.241 478.966C290.793 484.31 304.758 472.241 312.862 473.966C314.069 474.31 315.448 474.828 316.655 475.345C317 475.517 317.345 475.69 317.689 475.862C319.069 477.069 319.069 483.966 317.689 487.069C315.62 491.897 305.448 493.621 300.276 493.793C295.448 492.931 289.586 491.897 286.31 488.103Z" fill="#1E1E1E"/>
<path d="M429.759 489.138C429.759 489.138 444.241 488.793 447.862 482.931C449.586 480 449.931 474.138 449.069 471.379C448.379 468.793 447 469.138 444.069 467.759C435.276 463.621 417.862 479.828 413.034 470.862C412.172 469.138 412.345 475.69 412.345 476.379C412 478.448 412.69 480.69 414.069 482.241C417.517 487.241 424.414 488.276 429.759 489.138Z" fill="white"/>
<path d="M434.759 466.897C430.621 468.104 425.793 470.517 422 471.552C414.759 473.793 414.759 470.517 413.724 469.655C413.207 469.138 412.173 469.31 411.828 469.828L411.655 470C410.966 471.207 411.31 474.483 411.138 476.724C410.966 478.793 411.655 480.862 413.035 482.586C416.828 487.759 423.552 488.793 429.931 489.483C434.931 489.483 442.345 488.621 446.483 485.862C448.035 484.828 449.069 483.448 449.759 481.724C450.621 479.31 450.966 476.724 450.793 474.138C450.621 469.138 449.242 468.276 446.828 467.414C443.897 466.379 441.828 464.655 434.759 466.897ZM415.621 482.759C414.242 481.379 413.552 479.483 413.379 477.586C413.379 476.897 413.552 476.897 413.552 476.035C413.552 475.517 413.552 474.31 413.552 473.621C420.104 478.966 434.069 466.897 442.173 468.621C443.379 468.966 444.759 469.483 445.966 470C446.31 470.173 446.655 470.345 447 470.517C448.379 471.724 448.379 478.621 447 481.724C444.931 486.552 434.759 488.276 429.586 488.448C424.759 487.759 419.069 486.552 415.621 482.759Z" fill="#1E1E1E"/>
<path d="M177.172 499.483C177.172 499.483 191.655 499.138 195.276 493.276C197 490.345 197.345 484.483 196.483 481.724C195.793 479.138 194.414 479.483 191.483 478.103C182.69 473.965 165.276 490.172 160.448 481.207C159.586 479.483 159.759 486.034 159.759 486.724C159.414 488.793 160.103 491.034 161.483 492.586C164.931 497.586 171.655 498.621 177.172 499.483Z" fill="white"/>
<path d="M182 477.241C177.862 478.448 173.034 480.862 169.241 481.897C162 484.138 162 480.862 160.965 480C160.448 479.483 159.413 479.655 159.069 480.172L158.896 480.345C158.207 481.552 158.551 484.828 158.379 487.069C158.207 489.138 158.896 491.207 160.276 492.931C164.069 498.103 170.793 499.138 177.172 499.828C182.172 499.828 189.586 498.966 193.724 496.207C195.276 495.172 196.31 493.793 197 492.069C197.862 489.655 198.207 487.069 198.034 484.483C197.862 479.483 196.482 478.621 194.069 477.759C191.138 476.724 189.241 475 182 477.241ZM163.034 493.103C161.655 491.724 160.965 489.828 160.793 487.931C160.793 487.241 160.965 487.241 160.965 486.379C160.965 485.862 160.965 484.655 160.965 483.966C167.517 489.31 181.482 477.241 189.586 478.966C190.793 479.31 192.172 479.828 193.379 480.345C193.724 480.517 194.069 480.69 194.413 480.862C195.793 482.069 195.793 488.966 194.413 492.069C192.345 496.897 182.172 498.621 177 498.793C172.172 497.931 166.31 496.897 163.034 493.103Z" fill="#1E1E1E"/>
<path d="M171.138 218.276C172.862 222.241 175.621 225.69 179.241 227.931C175.621 230.69 172.862 234.31 171.138 238.448C169.758 233.966 166.655 230 162.69 227.586C166.483 225.345 169.414 222.069 171.138 218.276Z" fill="white"/>
<path d="M169.069 220.517C167.862 222.069 166.482 223.448 164.931 224.655C162.172 226.724 161.655 226.207 161.482 227.414C161.655 228.793 162.862 228.276 165.965 231.552C167 232.759 167.862 233.966 168.724 235.345C170.275 238.448 169.758 238.793 170.793 239.483C171.31 239.655 172 239.483 172.344 239.138C172.689 238.793 172.517 238.793 173.034 237.586C174.758 233.966 177.344 230.862 180.448 228.276C181.655 225.69 176.482 226.897 171.827 217.759C171.827 217.586 171.655 217.414 171.482 217.414C170.62 217.586 170.793 218.276 169.069 220.517ZM177.344 227.759C174.931 229.828 172.862 232.241 171.31 234.828C169.931 231.724 167.689 229.138 164.931 227.241C167.689 225.172 169.758 222.586 171.138 219.483C172.517 222.931 174.586 225.69 177.344 227.759Z" fill="#1E1E1E"/>
<path d="M28.2072 198.965C29.9313 202.931 32.6899 206.379 36.3106 208.62C32.6899 211.379 29.9313 215 28.2072 219.138C26.8279 214.655 23.7244 210.689 19.7589 208.276C23.3796 206.207 26.483 202.931 28.2072 198.965Z" fill="white"/>
<path d="M26.138 201.379C24.9311 202.931 23.5518 204.31 22.0001 205.517C19.2415 207.586 18.7243 207.069 18.5518 208.276C18.7243 209.655 19.9311 209.138 23.0346 212.414C24.0691 213.621 24.9312 214.828 25.7932 216.207C27.3449 219.31 26.8277 219.655 27.8622 220.345C28.3794 220.517 29.0691 220.345 29.4139 220C29.7587 219.655 29.5863 219.655 30.1036 218.448C31.8277 214.828 34.4139 211.724 37.5174 209.138C38.7243 206.552 33.5518 207.759 28.8967 198.621C28.8967 198.448 28.7242 198.276 28.5518 198.276C27.5173 198.448 27.8622 198.966 26.138 201.379ZM34.4139 208.621C32.0001 210.69 29.9311 213.103 28.3794 215.69C27.0001 212.586 24.7587 210 22.0001 208.103C24.7587 206.034 26.8277 203.448 28.207 200.345C29.4139 203.621 31.6553 206.552 34.4139 208.621Z" fill="#1E1E1E"/>
<path d="M110.966 179.31C112.69 183.276 115.449 186.724 119.069 188.965C115.449 191.724 112.69 195.345 110.966 199.483C109.586 195 106.483 191.034 102.518 188.621C106.311 186.552 109.242 183.276 110.966 179.31Z" fill="white"/>
<path d="M110.966 178.793C110.104 178.793 109.414 182.759 103.724 186.552C101.828 187.759 101.483 187.586 101.483 188.621C101.655 189.655 102 189.483 104.241 191.207C106.31 192.931 107.862 195 108.897 197.241C110.104 200 109.759 200.173 110.621 200.69C113.379 201.552 111.31 197.586 119.069 190.69C120.104 189.828 119.931 190 120.276 189.655C121.483 187.069 116.31 188.276 111.655 179.138C111.138 179.31 110.966 179.483 111.655 179.138C111.483 178.966 111.138 178.793 110.966 178.793ZM117.172 188.966C114.759 191.035 112.69 193.448 111.138 196.035C109.759 192.931 107.517 190.345 104.759 188.448C107.517 186.379 109.586 183.793 110.966 180.69C112.345 183.966 114.414 186.897 117.172 188.966Z" fill="#1E1E1E"/>
<path d="M396.138 412.414C396.311 420.517 393.379 447.241 393.207 461.724C393.035 470.517 362.173 469.483 360.966 462.759C360.448 460 358.897 411.724 360.448 410.517C363.035 409.138 396.138 412.414 396.138 412.414Z" fill="white"/>
<path d="M396.31 411.896C388.896 411.034 373.207 409.31 365.103 409.138C360.103 409.138 359.586 409.483 359.241 411.207C357.862 418.62 359.241 461.551 359.931 463.448C361.138 467.241 368.034 468.448 372 468.965C377.69 469.655 385.965 469.31 390.965 466.551C393.034 465.689 394.414 463.793 394.586 461.551C394.931 445.517 397.517 412.069 396.828 412.069C396.828 412.241 396.483 411.896 396.31 411.896ZM395.621 412.931C395.448 421.724 392.172 447.586 392 461.724C391.828 467.758 370.103 467.931 363.724 464.138C363.207 463.793 362.69 463.276 362.345 462.758C362 461.379 360.276 411.724 361.483 411.551C366.483 410.689 390.793 412.586 395.621 412.931Z" fill="#1E1E1E"/>
<path d="M359.586 423.621C362.862 432.931 382 433.103 391.31 429.827C392.862 429.31 394.241 428.621 395.448 427.586C395.621 427.414 395.621 427.586 395.621 426.724C394.586 426.724 395.103 426.552 394.069 427.069C388.552 429.827 365.103 431.207 360.448 423.276L359.758 422.931L359.586 423.621Z" fill="#1E1E1E"/>
<path d="M359.931 436.379C364.414 443.448 387.517 443.276 394.414 438.276C394.758 437.931 394.586 438.276 394.758 437.241C393.379 437.069 394.586 437.069 392.517 437.759C388.552 438.966 377.69 439.828 368.724 438.448C366.31 438.104 362.517 437.586 360.793 435.69L360.103 435.517L359.931 436.379Z" fill="#1E1E1E"/>
<path d="M360.104 447.242L360.276 447.931C368.035 452.586 377.345 454.138 386.138 452.069C388.552 451.552 392.345 450.862 393.724 448.793V448.104C392.517 448.104 393.379 448.104 392.173 448.621C391.138 449.138 389.931 449.483 388.897 449.483C385.621 450 382.517 450.173 379.242 450.345C373.035 450.345 366.655 449.138 360.793 447.069L360.104 447.242Z" fill="#1E1E1E"/>
<path d="M360.276 457.069C360.448 458.966 362.862 460.345 364.586 461.035C370.276 463.448 379.414 463.793 385.276 462.586C388.207 461.897 392.172 460.517 393.551 457.931L393.379 457.241L392.689 457.414C390.103 460.69 379.414 460.69 375.103 460.517C372.345 460.345 362.517 459.483 361.31 457.069C361.138 456.897 361.31 457.069 360.62 456.552L360.276 457.069Z" fill="#1E1E1E"/>
<path d="M164.931 119.828C164.931 123.103 163.724 126.897 163.207 130.172C163.034 131.035 162.172 132.586 162.517 133.448C163.207 134.828 164.931 135.345 166.31 135.69C167.172 135.862 168.034 136.035 168.896 135.862" fill="white"/>
<path d="M164.931 118.448L164.069 118.966L163.724 120C163.724 124.138 162.69 126.897 162.345 130.173C162.172 131.035 161.483 132.586 161.827 133.793C162.517 136.035 166.827 137.069 169.241 136.724L169.758 136.207C168.724 135.345 169.586 135.862 168.034 135.69C167 135.517 166.138 135.173 165.276 134.655C163.896 133.966 163.724 133.104 163.896 133.276C163.896 132.759 164.414 131.724 164.758 130.173C165.621 127.069 166.31 123.793 166.655 120.517C166.655 120 166.655 120.345 166.31 119.311L164.931 118.448Z" fill="#1E1E1E"/>
<path d="M176.483 115.345C179.242 115.517 182 116.207 184.586 117.414L176.483 115.345Z" fill="white"/>
<path d="M175.621 114.31L175.276 115.172L175.621 116.207C176.828 116.724 176.31 116.552 177.173 116.724C179.069 116.724 180.966 117.069 182.69 117.414C184.931 117.931 183.897 118.103 185.104 117.759C184.759 116.897 185.104 117.069 184.069 116.552C182 115.345 179.759 114.483 177.345 114.138C176.31 113.965 176.655 113.966 175.621 114.31Z" fill="#1E1E1E"/>
<path d="M158.897 114.655C157.862 114.31 156.828 114.138 155.793 114.483C153.897 114.828 152.172 115 150.448 115.517" fill="white"/>
<path d="M153.897 113.793C152.69 114.138 151.483 114.483 150.276 115L149.931 115.69L150.621 116.035C151.828 115.862 152.862 115.862 154.242 115.862C155.966 115.69 157.69 115.345 158.035 115.69L159.069 115.862L159.931 115.345L160.104 114.311L159.586 113.449C158.035 112.586 155.793 113.276 153.897 113.793Z" fill="#1E1E1E"/>
<path d="M179.413 121.552C179.586 122.586 179.586 123.621 179.413 124.828V121.552Z" fill="white"/>
<path d="M179.586 126.034C180.276 126.034 180.793 125.517 180.965 124.828C181.138 123.621 181.138 122.414 180.793 121.207C180.62 120.517 179.931 120 179.241 120.172C178.551 120.345 178.034 121.034 178.207 121.724C178.379 122.586 178.379 123.621 178.207 124.483C178.034 125.172 178.551 125.862 179.241 126.034C179.413 126.034 179.413 126.034 179.586 126.034Z" fill="#1E1E1E"/>
<path d="M156.138 120.69C156.31 121.724 156.31 122.931 155.966 123.966L156.138 120.69Z" fill="white"/>
<path d="M156.138 125.345C156.827 125.345 157.345 124.828 157.517 124.138C157.69 122.931 157.69 121.552 157.69 120.345C157.517 119.655 156.827 119.138 156.138 119.138C155.448 119.31 154.931 120 154.931 120.69C154.931 120.69 154.931 120.69 154.931 120.862C155.103 121.724 154.931 122.759 154.758 123.621C154.586 124.31 155.103 125 155.793 125.172C155.965 125.345 155.965 125.345 156.138 125.345Z" fill="#1E1E1E"/>
<path d="M170.621 147.586C167.172 148.276 163.552 146.724 161.655 143.793L170.621 147.586Z" fill="white"/>
<path d="M161.482 143.448L161.31 144.138C163.034 147.586 166.827 149.655 170.62 148.966C171.138 148.966 170.793 148.966 171.827 148.448L172 147.414L171.482 146.552C169.931 146.207 171.138 146.38 169.241 146.552C167.172 146.724 164.931 146.035 163.379 144.655C161.655 143.448 162.689 143.621 161.482 143.448Z" fill="#1E1E1E"/>
<path d="M250.793 150V150.69C286.483 181.379 307.517 227.414 294.069 272.586C290.793 283.276 275.621 297.931 267.345 305C259.069 298.276 260.966 300.345 245.966 290.172L246.828 287.931C247.862 285 249.242 282.069 250.621 279.31C254.069 272.759 257.862 268.793 258.897 266.552C259.931 264.483 260.793 262.241 261.655 260C261.655 259.828 261.828 259.655 261.655 259.483C261.483 258.793 261.483 258.965 259.242 256.897C257.173 255 255.276 252.931 253.724 250.517C249.069 243.966 238.897 225.345 235.276 218.276C230.966 209.655 226.138 198.966 224.414 189.655C223.38 183.966 224.242 185.345 223.207 184.483C222.69 185.172 222.69 184.828 222.862 186.379C224.069 199.138 231.655 215.172 237.517 226.724C239.931 231.552 247.173 244.655 249.931 249.31C252.345 253.448 255.449 257.069 259.069 260.172C255.966 268.103 256.311 265.862 251.483 272.931C249.242 276.034 247.517 279.483 245.966 283.103C242.69 291.034 242.862 290.345 242.862 291.034C243.035 291.724 242.69 291.207 250.276 296.379C254.759 299.483 256.311 300.345 258.38 301.724C265.966 307.069 265.966 308.103 267.345 307.931C267.862 307.759 267.69 307.931 271.138 305C279.414 297.759 292.69 284.483 296.138 274.138C297.862 268.793 299.069 263.103 299.759 257.586C305.104 216.207 283.897 176.897 251.311 150H250.793Z" fill="#1E1E1E"/>
<path d="M247.173 292.414C246.655 293.103 246.31 293.621 245.793 294.31C244.931 295.517 243.035 297.069 243.207 298.793C243.207 299.138 244.586 299.828 244.931 300C246.483 301.035 247.862 302.241 249.242 303.276C251.31 304.828 253.379 306.379 255.448 307.931C256.138 308.448 257.517 309.483 258.379 309.483C258.897 309.483 259.931 307.241 260.104 307.069C260.966 305.862 261.828 304.483 262.69 303.276C257.345 299.138 258.724 300.517 247.173 292.414Z" fill="white"/>
<path d="M246.483 292.414C243.207 296.552 244.586 294.483 243.379 296.034C242.517 296.896 242.172 298.103 242.345 299.138C242.69 299.655 243.035 300.172 243.724 300.345C245.793 301.724 247.69 303.276 249.414 305C250.621 306.034 255.103 309.31 255.276 309.483C255.966 310 256.483 310.345 257.345 310.517C259.069 311.034 259.759 310.345 260.621 308.621C261.655 306.896 261.483 307.241 263.724 303.793C264.069 303.276 264.069 302.586 263.552 302.241C260.276 299.827 256.828 297.586 253.207 295.517C246.828 291.724 247.172 291.724 246.655 292.069H246.828H246.655L246.483 292.414ZM260.793 303.276C259.931 304.483 259.069 305.689 258.207 307.069C258.035 307.241 257.862 307.586 257.69 307.931C256.828 307.586 249.759 302.414 249.586 302.241C248.035 301.034 246.483 299.827 244.759 298.793C244.414 298.62 244.241 298.621 244.069 298.448C243.897 298.276 243.897 298.448 243.897 298.276C244.241 297.241 244.759 296.379 245.448 295.689C245.966 295 246.483 294.138 247 293.276C256.655 300.689 253.897 298.103 260.793 303.276Z" fill="#1E1E1E"/>
<path d="M263.035 313.276C258.552 307.586 252.518 303.276 246.483 299.31C245.449 298.621 242.173 295.517 240.793 295.862C237.862 296.552 233.035 304.655 231.828 307.069C231.138 308.793 230.104 310.345 229.069 311.724C228.207 312.586 224.414 312.414 223.207 312.586C219.414 313.621 215.966 316.034 213.552 319.138C213.38 319.31 214.242 319.655 214.414 319.655C215.276 319.828 216.138 319.828 217.173 319.655C219.069 319.655 220.793 319.828 222.517 320.172C224.069 320.345 224.586 320.172 224.414 322.069C224.069 325.69 223.035 329.31 222.345 332.759C221.483 338.276 220.793 343.966 219.931 349.483C219.586 352.069 218.552 357.931 220.966 359.828C223.724 361.897 226.828 356.897 227.518 355.172C230.449 347.759 231.828 339.655 233.724 331.897C233.724 332.069 233.724 332.241 233.552 332.414C233.035 333.966 232.69 335.69 232.518 337.414C231.828 340.517 228.897 347.069 231.828 349.655C236.311 353.448 239.759 344.655 240.449 341.724C240.621 340.517 240.966 339.138 241.483 337.931C241.483 337.931 241.483 338.793 241.483 338.966C241.311 340.172 240.966 341.207 240.966 342.414C240.966 344.31 242.862 345.345 244.586 345.517C246.311 345.69 247.345 344.138 247.862 342.759C249.242 339.31 249.931 335.517 250.276 331.897C250.449 330.862 249.759 328.966 250.449 328.103C253.035 324.31 263.035 313.276 263.035 313.276Z" fill="white"/>
<path d="M261.138 316.207C263.724 313.276 263.552 313.448 263.552 313.276C263.552 313.104 263.552 312.931 263.379 312.759C263.034 312.931 262.862 313.104 263.379 312.759C258.034 305.69 250.793 301.38 246.655 298.449C244.758 297.069 242.172 294.311 240.276 295C239.414 295.345 238.552 295.862 238.034 296.38C234.931 299.655 232.345 303.448 230.276 307.414C229.758 308.621 229.069 309.655 228.379 310.517C228.034 310.862 228.034 310.862 227.172 311.035C224.069 311.552 222.862 310.517 218.034 313.276C216.827 313.966 215.621 314.828 214.586 315.69C213.552 316.552 212.689 317.586 212 318.793C211.827 319.655 212.345 320.173 213.207 320.517C214.414 320.862 215.793 321.035 217 320.69C218.896 320.69 220.793 320.862 222.689 321.207C222.345 324.311 221.655 327.586 220.965 330.69C220.276 334.311 219.586 339.828 218.896 345C218.207 348.448 217.862 351.897 217.69 355.345C217.862 361.035 221.138 362.414 223.724 361.207C227.517 359.311 229.069 353.621 230.103 350C230.276 350.173 230.448 350.345 230.621 350.517C234.758 353.793 238.379 349.655 240.276 344.655C241.31 345.862 243.034 346.38 244.586 346.38C246.655 346.035 247.69 344.138 248.379 342.242C249.586 338.621 250.276 334.828 250.448 330.862C250.276 330 250.276 329.138 250.448 328.448C251.138 327.759 260.621 316.897 261.138 316.207ZM232.69 331.035C232.345 331.035 232 333.104 231.655 334.138C228.896 346.38 232 333.104 229.758 342.242C229.069 345.862 228.034 349.483 226.827 352.931C226.31 354.655 225.621 356.035 224.586 357.414C223.552 358.793 222.345 359.828 221.31 358.448C219.931 356.207 220.965 350.862 221.483 348.276C223.034 337.759 222.517 337.931 224.758 327.069C225.103 325.517 225.448 323.793 225.621 322.242C225.793 321.552 225.621 320.862 225.448 320.345C224.931 319.311 224.069 319.138 222.689 318.966C220.965 318.621 219.069 318.448 217.172 318.448C215.448 318.621 215.448 318.621 215.621 318.448C217.689 316.552 220.103 315 222.689 313.966C223.896 313.621 225.103 313.448 226.31 313.621C231.483 313.104 229.931 311.207 235.276 303.104C236.31 301.552 238.896 297.414 240.793 296.897C241.827 296.897 244.586 299.138 245.448 299.828C247.517 301.38 256.138 306.035 262.172 313.276C259.069 316.552 253.379 322.759 250.276 326.38C249.069 327.759 248.724 328.104 248.724 329.828C248.896 331.38 248.896 332.931 248.552 334.483C248.207 337.414 247.345 340.173 246.31 342.931C245.965 343.621 245.276 344.655 244.414 344.655C243.552 344.655 242.69 344.311 242.172 343.621C241.138 342.586 242.172 341.035 242.345 338.104C242.345 337.759 242.172 337.242 241.827 337.069C241.31 336.724 240.621 336.897 240.276 337.414C240.276 337.414 240.276 337.586 240.103 337.586C239.758 338.276 239.586 338.793 239.414 339.483C239.241 340.517 238.896 341.552 238.552 342.586C237.862 344.655 235.793 349.311 233.552 349.311C232.862 349.311 232.345 348.966 232 348.448C230.793 346.897 231.655 344.483 232.172 342.586C234.414 332.759 233.552 336.552 234.414 332.931C234.758 331.552 234.586 331.724 234.586 331.552C234.414 330.862 233.724 330.517 233.034 330.69C232.862 330.69 232.69 330.862 232.69 331.035Z" fill="#1E1E1E"/>
<path d="M377.345 422.931C377.345 422.931 391.828 422.586 395.448 416.724C404.069 402.586 369.759 394.138 360.966 408.448C359.586 410.862 359.931 413.966 361.655 416.207C365.103 421.035 371.828 422.069 377.345 422.931Z" fill="white"/>
<path d="M377.345 423.448C381.483 423.448 385.621 422.931 389.758 421.724C393.552 420.517 396.31 418.621 397.517 415C401.827 402.069 375.103 394.483 363.207 404.138C355.103 410.69 359.069 419.311 368.896 422.069C371.655 422.759 374.414 423.276 377.345 423.448ZM376.827 422.242C371.483 421.207 364.758 419.828 362 415C361.31 413.793 360.965 412.414 361.138 411.035C361.827 408.793 363.207 407.069 365.103 405.69C375.793 398.104 400.793 404.655 394.241 416.035C392.345 419.311 386.483 420.862 382.69 421.552C380.965 422.069 378.896 422.242 376.827 422.242Z" fill="#1E1E1E"/>
<path d="M300.621 487.931C300.621 487.931 315.103 487.586 318.724 481.724C327.345 467.586 293.035 459.138 284.241 473.448C282.862 475.862 283.207 478.966 284.931 481.207C288.379 486.034 295.276 487.069 300.621 487.931Z" fill="white"/>
<path d="M300.621 488.448C304.758 488.448 308.896 487.931 313.034 486.724C316.827 485.517 319.586 483.621 320.793 480C325.103 467.069 298.379 459.483 286.483 469.138C278.379 475.69 282.345 484.31 292.172 487.069C294.931 487.759 297.862 488.104 300.621 488.448ZM300.276 487.242C294.931 486.207 288.207 484.828 285.448 480C284.758 478.793 284.414 477.414 284.586 476.035C285.276 473.793 286.655 472.069 288.552 470.69C299.241 463.104 324.241 469.655 317.69 481.035C315.793 484.31 309.931 485.862 306.138 486.552C304.241 487.069 302.172 487.242 300.276 487.242Z" fill="#1E1E1E"/>
<path d="M430.103 482.586C430.103 482.586 444.586 482.241 448.207 476.379C456.827 462.241 422.517 453.793 413.724 468.104C412.345 470.517 412.689 473.621 414.414 475.862C417.689 480.69 424.586 481.724 430.103 482.586Z" fill="white"/>
<path d="M430.104 483.104C434.242 483.104 438.38 482.586 442.518 481.379C446.311 480.173 449.069 478.276 450.276 474.655C454.587 461.897 427.862 454.138 415.966 463.793C407.862 470.345 411.828 478.966 421.655 481.724C424.414 482.414 427.173 482.759 430.104 483.104ZM429.587 481.897C424.242 480.862 417.518 479.483 414.759 474.655C414.069 473.448 413.724 472.069 413.897 470.69C414.587 468.448 415.966 466.552 417.862 465.345C428.552 457.759 453.552 464.31 447 475.69C445.104 478.966 439.242 480.517 435.449 481.207C433.552 481.724 431.655 481.897 429.587 481.897Z" fill="#1E1E1E"/>
<path d="M177.345 492.931C177.345 492.931 191.828 492.586 195.448 486.724C204.069 472.586 169.759 464.138 160.966 478.448C159.586 480.862 159.931 483.966 161.655 486.207C165.103 491.034 172 492.069 177.345 492.931Z" fill="white"/>
<path d="M177.345 493.448C181.483 493.448 185.621 492.931 189.758 491.724C193.552 490.517 196.31 488.621 197.517 485C201.827 472.069 175.103 464.483 163.207 474.138C155.103 480.69 159.069 489.31 168.896 492.069C171.655 492.586 174.586 493.103 177.345 493.448ZM177 492.241C171.655 491.207 164.931 489.828 162.172 485C161.483 483.793 161.138 482.414 161.31 481.034C162 478.793 163.379 477.069 165.276 475.69C175.965 468.103 200.965 474.655 194.414 486.034C192.517 489.31 186.655 490.862 182.862 491.552C180.965 492.069 178.896 492.241 177 492.241Z" fill="#1E1E1E"/>
<path d="M180.62 158.448C173.551 162.069 164.414 161.897 156.827 159.655C158.724 164.31 160.793 168.793 163.207 173.276C164.586 175.862 167 184.31 170.103 185.172C170.103 185.172 171.482 180.862 171.482 180.517C174.241 173.103 174.241 175 180.62 158.448Z" fill="white"/>
<path d="M180.448 158.103C173.379 161.379 165.104 160.862 157.69 158.621C157.173 158.276 156.655 158.448 156.138 158.793C155.621 159.483 155.793 159.827 155.966 160.69C159.931 170.345 161.655 172.586 162.862 175.69C163.897 178.621 165.276 181.379 166.828 184.138C167.69 185.345 169.242 186.896 170.793 186.552C170.966 186.379 171.311 186.379 171.483 185.69C171.483 185.517 172.862 181.207 173.552 179.31C175.621 173.276 176.311 172.586 179.242 164.31C181.311 158.448 181.311 158.793 180.966 158.448C180.793 157.931 180.621 157.931 180.448 158.103ZM179.414 160C173.724 173.103 173.897 171.724 171.655 176.896C169.069 183.103 169.759 183.276 169.242 182.586C167.862 180.69 166.828 178.448 165.966 176.379C163.724 170.862 163.035 170.517 158.897 161.379C163.897 162.414 169.069 162.586 174.069 161.379C179.759 160.172 179.931 159.138 179.414 160Z" fill="#1E1E1E"/>
<path d="M157 159.655C154.931 159.138 152.862 158.103 151.311 156.552C145.966 151.379 142.173 138.621 142.518 133.448C138.207 134.138 133.897 135 129.586 136.034C130.966 148.621 133.897 162.586 142.518 171.724C144.586 173.965 147.518 178.793 150.966 179.138C152 179.31 153.552 174.828 154.242 173.965C155.966 171.207 158.035 168.793 160.449 166.552C159.069 164.483 158.035 162.069 157 159.655Z" fill="white"/>
<path d="M142.172 132.414C136.827 133.276 134.758 133.62 132 134.31C127.517 135.345 127.862 134.827 128.551 139.827C129.758 148.62 131.827 157.758 136.31 165.517C137.862 168.276 139.758 170.862 142 173.103C144.241 175.689 146.827 179.483 150.276 180.172C151.138 180.345 152 180 152.345 179.31C153.207 177.931 154.069 176.551 154.586 175C154.931 174.31 155.276 173.62 155.793 173.103C159.758 167.241 160.793 167.586 160.793 166.724C160.793 166.379 160.793 166.724 159.586 164.138C157 158.965 157.345 159.138 157 158.965C155.62 158.448 154.241 157.931 153.034 157.069C148.896 154.31 146.31 147.414 144.931 142.586C142.517 133.62 144.241 133.448 143.034 132.414C142.862 132.414 142.517 132.241 142.172 132.414ZM145.62 150.172C149.069 156.896 152 158.793 156.31 160.172C156.655 160.345 156.138 159.655 159.241 166.724C157.172 168.793 155.276 170.862 153.551 173.276C152.517 174.655 151.482 177.414 150.62 178.276C148.207 177.758 145.793 174.138 144.069 172.069C142.689 170.689 141.482 169.138 140.448 167.586C134.586 159.31 132 148.103 130.793 138.103L130.62 137.241C133.551 136.379 139.586 135.345 140.965 135.172C141.827 140.345 143.207 145.345 145.62 150.172Z" fill="#1E1E1E"/>
<path d="M193.897 130C193.035 130 192.862 135.517 192.862 136.724C192.69 140.862 191.655 144.828 190.276 148.793C188.207 153.103 184.931 156.552 180.793 158.621C179.759 161.379 178.552 164.31 177.517 167.069C178.724 169.138 186.31 181.897 189.241 182.931C190.276 183.276 193.379 179.483 194.069 178.793C202.345 170 207.173 156.379 207.69 145C208.035 140.517 208.035 136.034 207.862 131.552C203.379 130.69 198.379 130.345 193.897 130Z" fill="white"/>
<path d="M188.724 149.483C187 152.586 184.414 155.172 181.31 156.896C179.241 158.103 180.448 156.379 176.483 166.034C175.965 167.414 175.62 166.724 179.586 173.103C181.31 175.69 185.276 182.069 187.862 183.793C188.724 184.483 189.758 184.483 190.62 183.965C191.31 183.448 192 182.931 192.689 182.241C193.379 181.552 196.138 178.448 197 177.414C203.724 168.793 207.689 158.276 208.551 147.414C208.724 145.345 209.241 132.069 208.379 131.034C208.207 130.69 208.207 130.69 203.207 130.172C196.483 129.655 194.241 129.655 194.069 129.655C191.483 129.31 193.379 141.552 188.724 149.483ZM206.827 132.069C207 138.276 206.483 144.483 205.62 150.517C204.586 156.379 202.689 161.896 200.103 167.241C198.207 171.207 195.62 174.655 192.689 177.759C191.655 179.138 190.448 180.345 189.241 181.379C186.483 179.483 180.448 169.655 178.724 166.724C182.172 158.276 181.31 159.483 182.172 158.965C196.138 150.69 192.689 134.483 194.069 130.517C198.724 131.034 202.172 131.379 206.827 132.069Z" fill="#1E1E1E"/>
<path d="M10.1037 256.379C11.8279 260.345 14.5865 263.793 18.2072 266.034C14.5865 268.793 11.8279 272.414 10.1037 276.552C8.72443 272.069 5.62094 268.103 1.65543 265.69C5.44853 263.621 8.3796 260.345 10.1037 256.379Z" fill="white"/>
<path d="M8.03453 258.793C6.82763 260.345 5.44833 261.724 3.89661 262.931C1.13799 265 0.620747 264.655 0.448334 265.689C0.620747 267.069 1.82765 266.552 4.9311 269.827C5.96558 271.034 6.82761 272.241 7.68968 273.62C9.2414 276.724 8.72418 277.069 9.75866 277.758C10.2759 277.931 10.9655 277.758 11.3104 277.414C11.6552 277.069 11.4828 277.069 12 275.862C13.7242 272.241 16.3104 269.138 19.4138 266.552C20.6207 263.965 15.4483 265.172 10.7932 256.034C10.7932 255.862 10.6207 255.689 10.4483 255.689C9.41383 255.862 9.75866 256.379 8.03453 258.793ZM16.3104 266.034C13.8966 268.103 11.8276 270.517 10.2759 273.103C8.89657 270 6.65523 267.414 3.89661 265.517C6.65523 263.448 8.7242 260.862 10.1035 257.758C11.4828 261.034 13.5518 263.965 16.3104 266.034Z" fill="#1E1E1E"/>
<path d="M151.311 394.31C151.311 394.31 145.276 460.517 144.587 462.758C141.138 475.344 63.897 476.724 60.6211 460.517C60.1039 457.758 49.2418 394.31 50.6211 392.758C52.8625 390.517 57.3453 390.345 60.2763 389.827C67.1728 388.276 73.897 386.034 80.7935 384.655C88.3797 383.448 95.9659 383.103 103.725 383.965C120.104 384.827 135.794 390 151.311 394.31Z" fill="#1E1E1E"/>
<path d="M64.7591 387.414C56.6557 389.483 55.966 388.793 52.8626 390C51.6557 390.345 50.6212 391.034 49.7591 391.896C49.0695 392.586 49.2419 393.793 49.4143 396.552C50.2764 405.69 53.5522 426.724 55.1039 435.69C59.5867 462.586 59.4143 461.724 60.2764 463.103C62.0005 465.517 64.2419 467.414 67.0005 468.448C79.5867 474.138 103.552 474.483 118.035 473.276C125.276 472.586 143.38 470.345 145.794 463.448C146.483 461.379 152.173 394.483 152.001 394.483V394.31V394.138C151.656 393.621 131.828 388.103 129.932 387.586C122.173 385.345 114.069 383.965 106.138 383.103C84.2419 381.207 79.4143 383.793 64.7591 387.414ZM150.794 394.827C150.104 401.724 144.759 454.655 143.725 461.724C143.552 462.931 142.863 464.138 141.828 464.655C139.587 466.034 137.001 467.241 134.414 467.758C123.38 470.862 108.035 471.379 96.6557 470.862C88.2074 470.517 68.2074 468.793 63.035 462.069C62.3453 461.379 62.0005 460.345 62.0005 459.483C61.1384 454.483 51.4832 398.103 52.0005 393.276C53.7246 391.724 57.5177 391.379 59.9315 391.034C64.7591 390.172 74.2419 387.069 81.1384 385.69C85.4488 384.827 89.7591 384.483 94.0695 384.483C112.518 384.483 124.587 387.414 142.518 392.414C151.656 395 150.794 394.655 150.794 394.827Z" fill="#1E1E1E"/>
<path d="M151.483 396.896C146.311 400.862 117.69 410 95.6212 405.345C88.2074 403.793 40.4487 400.862 53.0349 388.62C61.3108 380.517 102 377.413 108.552 379.138C114.932 380.517 159.242 385.689 151.483 396.896Z" fill="white"/>
<path d="M101.655 377.241C90.4485 377.414 79.2415 378.621 68.2071 381.034C61.8278 382.414 50.4484 385.517 49.7588 392.069C49.0691 402.931 86.1381 404.655 95.9657 406.552C102.345 407.758 108.724 407.931 115.276 407.414C131.311 406.207 146.311 400.862 151.138 397.931C151.311 397.931 151.483 397.931 151.655 397.758C152 397.241 152.345 396.724 152.69 396.207C156.483 387.241 130.276 382.069 120.276 380.172C107.862 377.586 108.035 377.241 101.655 377.241ZM108.724 380.172C114.931 381.552 155.276 386.207 151.655 395.689C151.311 396.552 151.138 396.724 149.931 397.241C143.724 400.517 131.655 403.276 124.242 404.483C114.759 406.034 105.104 405.862 95.6209 404.138C88.5519 402.758 61.3105 400.689 53.8967 394.827C52.1726 393.448 52.1726 392.414 52.8622 391.034C53.7243 389.655 55.1036 388.62 56.6553 387.758C68.5519 381.379 102.517 378.621 108.724 380.172Z" fill="#1E1E1E"/>
<path d="M101.828 389.138C117.345 383.621 133.552 380 149.069 373.965C158.552 370.345 168.207 367.241 177 361.896C182 358.793 185.966 356.896 189.069 351.552C190.966 348.621 192.345 345.517 193.207 342.069C194.242 333.965 190.276 329.655 183.552 326.379C174.587 322.069 164.069 321.896 154.759 325.862C149.414 328.448 144.414 331.896 140.104 335.862C129.759 344.138 120.966 354.138 114.242 365.517C107.345 376.896 109.069 373.448 101.828 389.138Z" fill="white"/>
<path d="M159.069 322.586C155.621 323.621 152.518 325 149.414 326.896C143.897 330.517 138.724 334.655 133.897 339.31C121.655 350.862 115.276 360.345 107.69 374.827C106.311 377.586 105.966 378.276 101.311 388.448C101.138 388.965 101.138 388.965 101.138 389.138C101.138 389.483 101.483 389.655 101.655 389.655H101.828C101.655 388.965 101.655 388.965 101.828 389.655C114.414 385.517 124.587 383.103 137.518 379.138C142.173 377.758 144.586 376.896 159.242 371.552C165.449 369.31 171.483 366.552 177.173 363.276C183.724 359.31 187 357.758 190.621 351.379C192.518 348.621 193.724 345.517 194.414 342.241C194.931 338.965 194.587 335.69 193.035 332.758C189.242 325.345 174.587 318.448 159.069 322.586ZM168.724 323.965C177.345 323.965 184.931 327.414 188.552 331.034C190.104 332.414 191.138 334.138 191.655 336.207C192.173 338.448 192.173 340.69 191.655 342.758C190.449 346.207 188.897 349.483 186.828 352.586C186.138 353.621 185.276 354.483 184.414 355.345C180.621 358.276 176.483 360.862 172.345 363.103C167.345 365.69 162 367.931 156.828 369.827C147.173 373.448 147.345 373.448 142.345 375.345C129.586 379.827 115.621 383.621 103.035 388.103C106.828 379.827 111.138 371.724 116.138 364.138C118.724 360 121.655 356.034 124.931 352.414C132.345 343.965 140.793 336.552 149.931 330C155.276 326.034 162 323.965 168.724 323.965Z" fill="#1E1E1E"/>
<path d="M99.9316 389.483C84.7592 382.931 68.8971 378.276 53.7247 371.207C44.4144 366.897 34.9316 363.103 26.4833 357.241C21.6557 353.793 17.8627 351.552 15.104 346.034C13.3799 343.103 12.173 339.655 11.6558 336.207C11.1385 328.103 15.2765 323.965 22.3454 321.034C31.6558 317.241 42.173 317.759 51.1385 322.414C56.3109 325.345 60.9661 329.138 65.104 333.276C74.7592 342.241 82.8626 352.759 89.0695 364.483C95.104 377.069 93.7247 373.621 99.9316 389.483Z" fill="white"/>
<path d="M35.104 317.586C28.035 317.586 19.0695 320.172 14.2419 325C9.75916 329.655 9.41431 336.207 11.8281 342.241C14.5867 349.138 17.0005 352.069 20.7936 355C22.3453 356.207 26.3109 358.965 27.3453 359.483C30.104 361.379 33.035 362.931 35.966 364.482C42.1729 367.586 57.5178 374.31 57.6902 374.31C72.0005 380.345 85.104 384.138 99.7591 390.172C99.9315 389.655 100.104 389.483 99.7591 390.172C100.104 390.345 100.276 390.172 100.449 389.827C100.449 389.483 100.621 389.827 98.8971 385.345C96.3108 378.62 96.3109 378.62 95.966 377.586C92.8626 370.172 89.2419 362.931 85.104 355.862C79.7591 347.586 73.5522 340 66.4833 333.276C57.1729 323.965 48.8971 317.586 35.104 317.586ZM49.2419 323.103C56.1384 326.379 63.2074 333.103 68.8971 338.965C77.1729 347.069 84.0695 356.551 89.2419 366.896C93.035 373.793 96.1384 381.034 98.8971 388.448C78.035 379.31 76.1384 380.689 42.8626 365C37.0005 362.414 31.4833 359.31 26.3109 355.689C20.104 351.379 18.3798 350 15.2764 343.62C13.5522 339.827 12.3454 336.551 13.2074 332.069C13.7247 329.31 15.4488 326.896 17.6902 325.345C25.104 320.172 37.8626 318.103 49.2419 323.103Z" fill="#1E1E1E"/>
<path d="M165.966 344.483C143.38 346.207 106.311 375.517 103.035 387.759L165.966 344.483Z" fill="white"/>
<path d="M165.794 343.965C150.621 344.483 131.828 356.379 119.932 366.207C114.414 370.862 104.242 380.517 102.518 387.586C102.518 387.759 102.518 387.586 102.863 388.448C103.725 387.931 103.38 388.276 103.725 387.414C108.38 375.862 143.207 349.31 163.725 345.517C166.311 345 165.621 345.517 166.311 344.655C165.794 343.793 165.966 343.965 165.794 343.965Z" fill="#1E1E1E"/>
<path d="M38.8967 340.862C61.3105 344.138 96.3105 375.689 98.8967 388.103L38.8967 340.862Z" fill="white"/>
<path d="M38.3793 340.69C39.2414 341.897 38.2069 340.862 42.862 342.241C62.6896 348.448 91.6552 373.793 97.5172 385.69C98.8965 388.621 97.8621 387.759 99.069 388.448L99.4138 387.759C97.3448 374.655 63.7241 343.276 39.931 340.172C38.7241 340.172 39.069 340.172 38.3793 340.69Z" fill="#1E1E1E"/>
<path d="M101.483 301.724C99.4142 311.207 100.621 321.897 100.966 331.379C101.483 345.517 102.345 385.345 101.483 389.655" fill="white"/>
<path d="M100.794 300.517C100.276 301.207 99.9317 301.034 98.7248 306.552C97.6903 312.069 97.173 317.759 97.3454 323.276C97.6903 372.759 99.7592 378.621 100.104 388.448C100.104 389.138 100.104 390 100.449 390.69L101.311 391.207L102.345 391.034C103.208 390 103.035 390.172 103.035 389.827C103.208 388.965 103.38 388.103 103.552 387.241C105.621 372.414 105.621 360.69 105.276 345.862C104.587 319.655 102.518 315.69 102.863 305.69C103.035 301.207 103.38 302.931 102.863 301.034L102.001 300.345L100.794 300.517Z" fill="#1E1E1E"/>
<path d="M54.414 244.483C69.5864 218.621 102.345 219.31 109.069 220.172C117.173 221.207 125.793 222.759 132.862 227.069C139.414 230.862 144.931 236.207 149.242 242.586C153.897 249.138 157 256.724 158.724 264.655C163.897 295.517 137.173 318.448 109.759 324.483C103.897 325.69 98.3795 324.827 92.5174 324.138C80.4484 322.759 67.0002 318.276 59.0691 308.621C44.7588 291.034 39.9312 269.138 54.414 244.483Z" fill="white"/>
<path d="M92.5177 219.655C75.966 222.241 62.1729 230 53.897 244.483C40.4488 267.241 42.5177 289.827 58.5522 309.483C65.7936 318.448 77.3453 322.931 88.7246 324.827C104.242 327.414 108.38 326.379 114.414 324.655C121.311 322.759 128.035 319.827 134.069 316.034C159.069 300.172 169.242 273.621 152.862 245.69C148.38 237.586 141.828 231.034 134.069 226.207C130.449 223.965 126.483 222.414 122.345 221.379C112.518 218.793 102.345 218.103 92.5177 219.655ZM118.035 222.759C125.621 224.138 132.69 227.586 138.552 232.586C145.449 238.448 150.794 245.862 154.069 254.138C165.966 282.069 148.897 308.448 120.621 319.655C115.966 321.552 110.966 322.931 105.794 323.621C100.621 324.138 90.1039 322.586 86.4832 321.896C68.2074 318.276 60.1039 310.517 53.2074 298.448C43.2074 280.862 44.4143 262.759 54.7591 244.655C62.1729 232.241 74.2418 225.172 88.5522 222.241C98.3798 220.172 108.38 220.345 118.035 222.759Z" fill="#1E1E1E"/>
<path d="M59.4138 250C72.5172 228.793 100.965 229.31 106.828 230.172C113.897 231.034 121.31 232.414 127.345 235.862C133.034 238.965 137.862 243.276 141.483 248.448C145.448 253.793 148.207 260 149.586 266.552C154.069 291.724 130.965 310.689 107.172 315.517C102 316.552 97.3448 315.862 92.1724 315.172C81.6552 313.965 70.1034 310.517 63.2069 302.414C51.1379 288.276 47 270.345 59.4138 250Z" fill="white"/>
<path d="M90.4487 230.172C77.5177 232.586 65.966 238.621 58.897 250.172C57.6901 252.069 56.6556 254.138 55.6211 256.207C50.966 265.345 49.9315 275.862 52.8625 285.69C55.2763 293.448 59.759 300.69 65.6211 306.379C74.4142 314.138 86.828 316.379 98.5522 317.241C102.863 317.586 107 317.241 111.138 316.034C135.794 309.483 156.138 289.31 150.449 264.828C148.207 256.379 143.725 248.793 137.69 242.586C134.069 239.138 129.931 236.207 125.276 233.965C121.138 232.241 116.656 231.034 112.173 230.345C105.104 228.793 97.6901 228.793 90.4487 230.172ZM121.138 234.138C131.656 237.759 141.311 246.552 146.656 259.655C155.621 281.552 141.483 301.552 118.897 311.034C114.414 312.931 109.759 314.138 104.931 315C99.7591 315.517 90.1039 314.138 86.6556 313.448C71.6556 310.517 64.9315 304.483 59.2418 295.345C49.759 280.345 50.966 265.172 59.9315 250.345C72.0004 231.207 99.7591 226.896 121.138 234.138Z" fill="#1E1E1E"/>
<path d="M85.4485 260.517C86.1381 247.241 111.138 243.965 112.345 259.483C112.862 266.379 106.828 270.172 100.966 271.896C92.5174 274.31 81.483 278.448 83.7243 286.896C88.3795 304.138 117.862 297.758 115.621 285.345" fill="white"/>
<path d="M97.6593 247.586C105.418 247.586 113.521 252.586 113.694 260.517L113.004 261.379C111.797 260.172 112.487 261.207 111.797 258.965C109.556 250.862 96.6248 248.103 90.7627 253.276C88.1765 255.689 87.3145 259.31 88.1765 262.586C88.8662 264.655 90.2455 266.207 92.1421 267.414C95.2455 269.482 97.6593 269.827 102.142 271.207C109.383 273.62 117.487 277.931 116.625 285.517C116.28 287.931 115.418 290.172 114.039 292.069C104.901 305 79.0386 297.414 81.7972 285L82.6593 284.31C83.3489 285.345 83.3489 285.172 83.3489 285.517C82.3144 296.034 106.97 300.517 112.142 287.414C113.177 285.517 113.004 283.103 111.797 281.207C108.177 276.379 98.0041 274.138 94.3834 272.758C84.0386 268.62 84.211 261.551 84.0386 261.379C83.3489 254.138 88.5214 247.586 97.6593 247.586Z" fill="#1E1E1E"/>
<path d="M98.2072 240.689C98.2072 250.689 100.449 292.414 100.966 305L98.2072 240.689Z" fill="white"/>
<path d="M100.763 240.689C101.797 253.793 100.935 270.517 100.073 283.62C99.7281 288.62 99.5557 291.379 98.0039 305L97.1419 305.862L96.4522 305C96.1074 296.034 96.1074 288.965 96.2798 283.62C97.4867 253.965 98.3487 250.345 99.2108 240.862L100.073 240L100.763 240.689Z" fill="#1E1E1E"/>
<path d="M67.6903 413.448L65.7937 414.31L65.1041 416.207C65.6213 421.379 65.6213 432.069 67.6903 444.31C68.38 448.276 69.4144 452.069 69.5869 452.931L70.1041 453.621L70.7937 453.793L71.4834 453.276C72.1731 450.517 70.7938 455.517 70.6213 430.862C70.6213 429.138 70.4489 416.552 70.4489 415.862L69.5869 413.965L67.6903 413.448Z" fill="white"/>
</g>
<defs>
<clipPath id="clip0">
<rect width="451.552" height="500" fill="white" transform="matrix(-1 0 0 1 452 0)"/>
</clipPath>
</defs>
</svg>
