<svg width="64" height="60" viewBox="0 0 64 60" fill="none" xmlns="http://www.w3.org/2000/svg">
<path d="M63.0756 54.1237H58.9998V19.9791C58.9998 17.8036 57.2244 16.0408 55.0615 16.0408H43.034C42.5214 16.0408 42.0963 16.4659 42.0963 16.9785C42.0963 17.4911 42.5214 17.9162 43.034 17.9162H55.0615C56.1992 17.9162 57.1244 18.8414 57.1244 19.9791V54.1237H53.9112C53.9612 53.7736 53.9862 53.411 53.9862 53.061C53.9862 48.6725 50.423 45.1093 46.0346 45.1093C45.447 45.1093 44.8593 45.1718 44.2717 45.3094C43.259 43.3589 41.2461 42.0962 39.0206 42.0962C38.2955 42.0962 37.5828 42.2337 36.9202 42.4838C36.6451 40.0082 34.5447 38.0829 32.0067 38.0829C29.4686 38.0829 27.3682 40.0082 27.0931 42.4838C26.4305 42.2212 25.7179 42.0962 24.9927 42.0962C22.7672 42.0962 20.7418 43.3589 19.7416 45.3094C19.1665 45.1718 18.5664 45.1093 17.9787 45.1093C13.5903 45.1093 10.0271 48.6725 10.0271 53.061C10.0271 53.4235 10.0521 53.7736 10.1021 54.1237H6.88894V19.9791C6.88894 18.8414 7.81413 17.9162 8.95187 17.9162H20.9794C21.492 17.9162 21.9171 17.4911 21.9171 16.9785C21.9171 16.4659 21.492 16.0408 20.9794 16.0408H8.95187C6.77641 16.0408 5.01354 17.8161 5.01354 19.9791V54.1237H0.937695C0.425089 54.1237 0 54.5488 0 55.0614V57.0618C0 58.6871 1.32528 59.9999 2.93811 59.9999H61.0627C62.6881 59.9999 64.0008 58.6746 64.0008 57.0618V55.0614C64.0133 54.5363 63.5882 54.1237 63.0756 54.1237ZM62.1379 57.0618C62.1379 57.6494 61.6628 58.1245 61.0752 58.1245H2.93811C2.35049 58.1245 1.87539 57.6494 1.87539 57.0618V55.9991H13.9654C14.478 55.9991 14.9031 55.574 14.9031 55.0614C14.9031 54.5488 14.478 54.1237 13.9654 54.1237H11.99C11.9275 53.7736 11.89 53.411 11.89 53.061C11.89 49.7103 14.6155 46.9847 17.9662 46.9847C18.6289 46.9847 19.304 47.0972 19.9542 47.3223C20.1917 47.4098 20.4543 47.3848 20.6668 47.2848C20.8919 47.1722 21.0669 46.9847 21.1419 46.7471C21.7045 45.0968 23.2423 43.9841 24.9802 43.9841C25.9304 43.9841 26.8306 44.3216 27.5807 44.9593C27.9058 45.2218 28.3559 45.2468 28.706 45.0218C29.0561 44.7967 29.2061 44.3592 29.0811 43.9591C28.9685 43.6215 28.9185 43.3214 28.9185 43.0464C28.9185 41.3585 30.2938 39.9707 31.9942 39.9707C33.682 39.9707 35.0698 41.346 35.0698 43.0464C35.0698 43.3214 35.0198 43.609 34.9073 43.9591C34.7822 44.3592 34.9323 44.7842 35.2824 45.0218C35.6324 45.2468 36.0825 45.2218 36.4076 44.9593C37.1577 44.3216 38.0579 43.9841 39.0081 43.9841C40.7335 43.9841 42.2838 45.0968 42.8464 46.7471C42.9214 46.9847 43.0965 47.1722 43.3215 47.2848C43.5466 47.3973 43.8091 47.4098 44.0342 47.3223C44.6843 47.0972 45.3469 46.9847 46.0221 46.9847C49.3728 46.9847 52.0984 49.7103 52.0984 53.061C52.0984 53.4235 52.0608 53.7736 51.9983 54.1237H17.9787C17.4661 54.1237 17.041 54.5488 17.041 55.0614C17.041 55.574 17.4661 55.9991 17.9787 55.9991H62.1379V57.0618Z" fill="#1E1E1E"/>
<path d="M19.9543 27.5682C19.3667 28.2809 19.0416 29.1686 19.0416 30.0937V33.0069C19.0416 33.3444 19.2167 33.6445 19.5042 33.8195C19.6543 33.907 19.8168 33.9445 19.9793 33.9445C20.1419 33.9445 20.2919 33.907 20.4419 33.8195L27.1183 30.0562C27.3684 30.5188 27.6434 30.9814 27.931 31.4315L27.0933 34.7947C27.0183 35.0698 27.0808 35.3699 27.2683 35.5949C27.4559 35.8199 27.7184 35.9575 28.006 35.9575H36.0202C36.3077 35.9575 36.5828 35.8199 36.7578 35.5949C36.9328 35.3699 36.9954 35.0698 36.9328 34.7947L36.0952 31.4315C36.3827 30.9814 36.6453 30.5313 36.9078 30.0562L43.5842 33.8195C43.7218 33.8945 43.8843 33.9445 44.0468 33.9445C44.2094 33.9445 44.3719 33.907 44.5219 33.8195C44.8095 33.657 44.9845 33.3444 44.9845 33.0069V30.0812C44.9845 29.1561 44.6595 28.2684 44.0718 27.5557L39.6209 22.2171C39.8585 20.8293 39.971 19.404 39.971 17.9662C39.971 14.5405 39.3083 11.2398 38.0081 8.13917C36.7453 5.15105 34.9574 2.5005 32.682 0.262532C32.3194 -0.100043 31.7318 -0.100043 31.3692 0.262532C29.0937 2.5005 27.3058 5.15105 26.0431 8.13917C24.7428 11.2398 24.0802 14.5405 24.0802 17.9662C24.0802 19.404 24.2052 20.8168 24.4302 22.2046L19.9543 27.5682ZM20.917 31.4065V30.0937C20.917 29.6061 21.0921 29.1435 21.3921 28.7685L24.9053 24.5551C25.2554 25.8679 25.718 27.1556 26.2681 28.3809L20.917 31.4065ZM29.1937 34.0696L29.7313 31.9316H34.2823L34.8199 34.0696H29.1937ZM42.6215 28.7685C42.9341 29.1435 43.0966 29.6061 43.0966 30.0937V31.4065L37.733 28.3809C38.2956 27.1431 38.7457 25.8679 39.0958 24.5551L42.6215 28.7685ZM32.0068 2.28795C33.5821 3.97581 34.8824 5.92621 35.8701 8.02665H28.1435C29.1312 5.91371 30.4315 3.97581 32.0068 2.28795ZM27.3684 9.88954H36.6578C37.5955 12.4401 38.0956 15.1906 38.0956 17.9662C38.0956 22.2796 36.9328 26.443 34.7324 30.0562H29.2938C27.0933 26.443 25.9306 22.2796 25.9306 17.9662C25.9306 15.1906 26.4307 12.4526 27.3684 9.88954Z" fill="#1E1E1E"/>
<path d="M35.945 16.9785C35.945 14.803 34.1696 13.0402 32.0067 13.0402C29.8437 13.0402 28.0684 14.8155 28.0684 16.9785C28.0684 19.1414 29.8437 20.9168 32.0067 20.9168C34.1696 20.9168 35.945 19.1539 35.945 16.9785ZM29.9437 16.9785C29.9437 15.8407 30.8689 14.9156 32.0067 14.9156C33.1444 14.9156 34.0696 15.8407 34.0696 16.9785C34.0696 18.1162 33.1444 19.0414 32.0067 19.0414C30.8689 19.0414 29.9437 18.1162 29.9437 16.9785Z" fill="#1E1E1E"/>
</svg>
